<svg width="75" height="76" xmlns="http://www.w3.org/2000/svg" xmlns:xlink="http://www.w3.org/1999/xlink" overflow="hidden"><defs><clipPath id="clip0"><rect x="787" y="338" width="75" height="76"/></clipPath></defs><g clip-path="url(#clip0)" transform="translate(-787 -338)"><path d="M21.1359 33.6391C21.1359 34.5719 21.2359 35.3266 21.4109 35.8813 21.6109 36.4359 21.8594 37.0406 22.2094 37.6953 22.3344 37.8969 22.3844 38.0984 22.3844 38.275 22.3844 38.5266 22.2344 38.7781 21.9109 39.0312L20.3391 40.0891C20.1141 40.2406 19.8906 40.3156 19.6906 40.3156 19.4406 40.3156 19.1922 40.1891 18.9422 39.9625 18.5922 39.5844 18.2938 39.1813 18.0438 38.7781 17.7937 38.35 17.5453 37.8719 17.2703 37.2922 15.325 39.6094 12.8797 40.7687 9.93594 40.7687 7.84063 40.7687 6.16875 40.1641 4.94687 38.9547 3.725 37.7453 3.10156 36.1328 3.10156 34.1172 3.10156 31.9766 3.85 30.2375 5.37187 28.9281 6.89375 27.6188 8.91406 26.9625 11.4828 26.9625 12.3313 26.9625 13.2047 27.0375 14.1266 27.1641 15.0484 27.2906 15.9969 27.4922 16.9953 27.7188L16.9953 25.8797C16.9953 23.9656 16.5969 22.6297 15.8234 21.8484 15.025 21.0672 13.6781 20.6891 11.7578 20.6891 10.8844 20.6891 9.9875 20.7891 9.06406 21.0172 8.14062 21.2437 7.24375 21.5203 6.37031 21.8734 5.97188 22.05 5.67188 22.15 5.49687 22.2016 5.32187 22.2516 5.19688 22.2766 5.09844 22.2766 4.74844 22.2766 4.575 22.025 4.575 21.4953L4.575 20.2609C4.575 19.8578 4.625 19.5562 4.75 19.3797 4.875 19.2031 5.1 19.0266 5.44844 18.85 6.32188 18.3969 7.36875 18.0187 8.59219 17.7156 9.81406 17.3875 11.1109 17.2375 12.4828 17.2375 15.4516 17.2375 17.6219 17.9172 19.0187 19.2781 20.3906 20.6391 21.0891 22.7047 21.0891 25.475L21.0891 33.6375 21.1359 33.6375ZM11.0078 37.4672C11.8313 37.4672 12.6797 37.3156 13.5766 37.0141 14.475 36.7125 15.2734 36.1578 15.9469 35.4016 16.3453 34.9234 16.6453 34.3937 16.7953 33.7891 16.9453 33.1844 17.0453 32.4531 17.0453 31.5969L17.0453 30.5391C16.3219 30.3625 15.5484 30.2109 14.75 30.1109 13.9516 30.0109 13.1781 29.9594 12.4047 29.9594 10.7328 29.9594 9.51094 30.2875 8.6875 30.9672 7.86406 31.6469 7.46562 32.6047 7.46562 33.8641 7.46562 35.0484 7.76562 35.9297 8.38906 36.5344 8.9875 37.1656 9.86094 37.4672 11.0078 37.4672ZM31.0391 40.1891C30.5906 40.1891 30.2906 40.1141 30.0906 39.9375 29.8906 39.7859 29.7172 39.4344 29.5672 38.9547L23.7047 19.4813C23.5547 18.9781 23.4797 18.65 23.4797 18.4734 23.4797 18.0703 23.6797 17.8438 24.0781 17.8438L26.5234 17.8438C26.9969 17.8438 27.3219 17.9188 27.4969 18.0953 27.6969 18.2469 27.8453 18.5984 27.9953 19.0781L32.1859 35.7563 36.0766 19.0781C36.2016 18.575 36.3516 18.2469 36.55 18.0953 36.75 17.9438 37.0984 17.8438 37.5484 17.8438L39.5438 17.8438C40.0172 17.8438 40.3422 17.9188 40.5422 18.0953 40.7422 18.2469 40.9156 18.5984 41.0156 19.0781L44.9562 35.9578 49.2719 19.0781C49.4219 18.575 49.5969 18.2469 49.7703 18.0953 49.9703 17.9438 50.2938 17.8438 50.7438 17.8438L53.0641 17.8438C53.4625 17.8438 53.6875 18.0453 53.6875 18.4734 53.6875 18.6 53.6625 18.725 53.6375 18.8766 53.6125 19.0281 53.5625 19.2297 53.4625 19.5063L47.4516 38.9797C47.3016 39.4828 47.1266 39.8109 46.9281 39.9625 46.7297 40.1141 46.4047 40.2141 45.9797 40.2141L43.8344 40.2141C43.3609 40.2141 43.0359 40.1391 42.8359 39.9625 42.6359 39.7859 42.4625 39.4594 42.3625 38.9547L38.4969 22.7047 34.6562 38.9297C34.5312 39.4328 34.3812 39.7609 34.1828 39.9375 33.9828 40.1141 33.6344 40.1891 33.1844 40.1891L31.0391 40.1891ZM63.0922 40.8688C61.7953 40.8688 60.4984 40.7172 59.2516 40.4156 58.0047 40.1141 57.0312 39.7859 56.3828 39.4078 55.9844 39.1813 55.7094 38.9297 55.6094 38.7031 55.5094 38.4766 55.4594 38.225 55.4594 37.9984L55.4594 36.7141C55.4594 36.1844 55.6594 35.9328 56.0328 35.9328 56.1828 35.9328 56.3328 35.9578 56.4812 36.0078 56.6312 36.0578 56.8547 36.1594 57.1047 36.2594 57.9531 36.6375 58.875 36.9391 59.8484 37.1406 60.8469 37.3422 61.8187 37.4422 62.8172 37.4422 64.3891 37.4422 65.6109 37.1656 66.4594 36.6109 67.3078 36.0563 67.7562 35.25 67.7562 34.2172 67.7562 33.5125 67.5312 32.9328 67.0828 32.4531 66.6344 31.975 65.7859 31.5469 64.5641 31.1437L60.9469 30.0094C59.1266 29.4297 57.7797 28.5734 56.9562 27.4391 56.1328 26.3312 55.7094 25.0969 55.7094 23.7859 55.7094 22.7281 55.9344 21.7953 56.3828 20.9891 56.8313 20.1828 57.4313 19.4781 58.1781 18.9234 58.9266 18.3438 59.775 17.9156 60.7719 17.6141 61.7703 17.3141 62.8172 17.1875 63.9156 17.1875 64.4641 17.1875 65.0375 17.2125 65.5875 17.2875 66.1609 17.3625 66.6844 17.4641 67.2094 17.5641 67.7078 17.6906 68.1828 17.8156 68.6312 17.9672 69.0797 18.1187 69.4297 18.2688 69.6797 18.4203 70.0297 18.6219 70.2781 18.8234 70.4281 19.05 70.5781 19.2516 70.6531 19.5281 70.6531 19.8813L70.6531 21.0656C70.6531 21.5953 70.4531 21.8719 70.0797 21.8719 69.8797 21.8719 69.5563 21.7719 69.1312 21.5703 67.7094 20.9156 66.1125 20.5875 64.3422 20.5875 62.9203 20.5875 61.7984 20.8141 61.025 21.2922 60.2516 21.7703 59.8531 22.5016 59.8531 23.5344 59.8531 24.2391 60.1031 24.8438 60.6016 25.3234 61.1 25.8016 62.0234 26.2812 63.3453 26.7094L66.8875 27.8438C68.6828 28.4234 69.9812 29.2297 70.7531 30.2625 71.525 31.2953 71.9 32.4797 71.9 33.7891 71.9 34.8719 71.675 35.8547 71.2516 36.7109 70.8031 37.5672 70.2031 38.3234 69.4313 38.9281 68.6578 39.5578 67.7344 40.0109 66.6625 40.3391 65.5359 40.6922 64.3641 40.8688 63.0922 40.8688Z" fill="#252F3E" transform="matrix(1 0 0 1.01333 787 338)"/><path d="M67.8063 53.1125C59.6 59.2344 47.6766 62.4844 37.4234 62.4844 23.0562 62.4844 10.1094 57.1188 0.33125 48.2-0.442187 47.4953 0.25625 46.5375 1.17969 47.0922 11.7563 53.2891 24.8016 57.0438 38.2969 57.0438 47.4016 57.0438 57.4047 55.1297 66.6078 51.1984 67.9812 50.5687 69.1531 52.1047 67.8063 53.1125ZM71.2234 49.1828C70.175 47.8219 64.2891 48.5281 61.6203 48.8547 60.8219 48.9547 60.6969 48.25 61.4203 47.7203 66.1094 44.3953 73.8172 45.3516 74.7156 46.4609 75.6141 47.5953 74.4656 55.3797 70.0766 59.1078 69.4031 59.6875 68.7547 59.3844 69.0531 58.6297 70.0516 56.1359 72.2719 50.5172 71.2234 49.1828Z" fill="#FF9900" transform="matrix(1 0 0 1.01333 787 338)"/></g></svg>