<svg width="85" height="76" xmlns="http://www.w3.org/2000/svg" xmlns:xlink="http://www.w3.org/1999/xlink" overflow="hidden"><defs><clipPath id="clip0"><rect x="669" y="251" width="85" height="76"/></clipPath></defs><g clip-path="url(#clip0)" transform="translate(-669 -251)"><path d="M15.8987 74.1939 10.5991 7.94935 74.1939 7.94935 68.8943 74.1939 42.3965 82.1433 15.8987 74.1939Z" fill="#1172B8" transform="matrix(1.00244 0 0 1 669 243.321)"/><path d="M68.8943 13.2489 42.3965 13.2489 42.3965 78.1686 63.5948 71.5441 68.8943 13.2489Z" fill="#33AADD" transform="matrix(1.00244 0 0 1 669 243.321)"/><path d="M51.6708 46.3712 25.1729 46.3712 23.848 37.097 45.0463 30.4725 23.848 30.4725 22.5232 22.5232 63.5948 22.5232 62.2699 31.7974 45.0463 38.4218 60.945 38.4218 58.2952 63.5948 42.3965 68.8943 26.4978 63.5948 25.1729 50.3459 33.1223 50.3459 34.4472 56.9703 42.3965 59.6201 50.3459 56.9703 51.6708 46.3712Z" fill="#FFFFFF" transform="matrix(1.00244 0 0 1 669 243.321)"/></g></svg>