<svg width="75" height="75" xmlns="http://www.w3.org/2000/svg" xmlns:xlink="http://www.w3.org/1999/xlink" overflow="hidden"><defs><clipPath id="clip0"><rect x="472" y="536" width="75" height="75"/></clipPath></defs><g clip-path="url(#clip0)" transform="translate(-472 -536)"><path d="M542.312 573.5C542.312 591.622 527.622 606.312 509.5 606.312 491.378 606.312 476.688 591.622 476.688 573.5 476.688 555.378 491.378 540.688 509.5 540.688 527.622 540.688 542.312 555.378 542.312 573.5Z" fill="#1794D4"/><path d="M514.188 552.406 509.5 552.406 509.5 557.094 514.188 557.094 514.188 552.406Z" fill="#FFFFFF"/><path d="M495.438 559.438 500.125 559.438 500.125 564.125 495.438 564.125 495.438 559.438Z" fill="#FFFFFF"/><path d="M486.066 575.706C486.467 582.506 490.516 592.25 504.812 592.25 520.75 592.25 527.859 580.531 529.422 574.672 531.375 574.672 535.75 573.5 537.625 568.812 536.453 567.641 531.766 567.641 529.422 568.812 529.422 566.938 528.25 562.953 525.906 561.781 524.344 563.344 521.922 567.406 524.734 571.156 523.562 573.5 520.438 573.5 518.875 573.5L488.272 573.5C487.031 573.5 485.993 574.468 486.066 575.706Z" fill="#FFFFFF"/><path d="M493.094 566.469 488.406 566.469 488.406 571.156 493.094 571.156 493.094 566.469Z" fill="#FFFFFF"/><path d="M495.438 566.469 500.125 566.469 500.125 571.156 495.438 571.156 495.438 566.469Z" fill="#FFFFFF"/><path d="M507.156 566.469 502.469 566.469 502.469 571.156 507.156 571.156 507.156 566.469Z" fill="#FFFFFF"/><path d="M509.5 566.469 514.188 566.469 514.188 571.156 509.5 571.156 509.5 566.469Z" fill="#FFFFFF"/><path d="M521.219 566.469 516.531 566.469 516.531 571.156 521.219 571.156 521.219 566.469Z" fill="#FFFFFF"/><path d="M507.156 559.438 502.469 559.438 502.469 564.125 507.156 564.125 507.156 559.438Z" fill="#FFFFFF"/><path d="M509.5 559.438 514.188 559.438 514.188 564.125 509.5 564.125 509.5 559.438Z" fill="#FFFFFF"/></g></svg>