<svg width="75" height="76" xmlns="http://www.w3.org/2000/svg" xmlns:xlink="http://www.w3.org/1999/xlink" overflow="hidden"><defs><clipPath id="clip0"><rect x="578" y="431" width="75" height="76"/></clipPath></defs><g clip-path="url(#clip0)" transform="translate(-578 -431)"><path d="M37.0266 58.6875 38.8703 58.6875C40.1828 58.6875 41.4188 58.075 42.2125 57.0297L53.9078 41.6437 65.6031 57.0297C66.3969 58.0734 67.6328 58.6875 68.9453 58.6875L70.7891 58.6875 55.8688 39.0625 70.1203 20.3125 68.2766 20.3125C66.9641 20.3125 65.7281 20.925 64.9344 21.9703L53.9062 36.4797 42.8766 21.9688C42.0828 20.925 40.8469 20.3125 39.5344 20.3125L37.6906 20.3125 51.9422 39.0625 37.0266 58.6875Z" fill="#212121" transform="matrix(1 0 0 1.01333 578 431)"/><path d="M37.5 40.625 37.5 35.9375C37.5 25.5078 28.2109 17.2484 17.4547 18.9812 9.08125 20.3297 3.125 27.9016 3.125 36.3813L3.125 37.5 3.125 40.625 3.125 40.8469C3.125 51.0859 10.5891 59.2625 20.1063 59.375 28.0625 59.4688 34.7766 54.15 36.8359 46.8766L35.2297 46.8766C34.2609 46.8766 33.3828 47.4313 32.9625 48.3031 30.2453 53.9203 23.9172 57.4625 16.9813 55.8688 10.5875 54.3984 6.25 48.4078 6.25 41.8484L6.25 40.625 37.5 40.625ZM6.25 37.0469C6.25 29.6906 10.6312 23.6766 17.0688 22.2375 26.2469 20.1875 34.375 27.1125 34.375 35.9375L34.375 37.5 6.25 37.5 6.25 37.0469Z" fill="#212121" transform="matrix(1 0 0 1.01333 578 431)"/></g></svg>