<svg width="76" height="76" xmlns="http://www.w3.org/2000/svg" xmlns:xlink="http://www.w3.org/1999/xlink" overflow="hidden"><defs><clipPath id="clip0"><rect x="463" y="245" width="76" height="76"/></clipPath></defs><g clip-path="url(#clip0)" transform="translate(-463 -245)"><path d="M468.676 245C467.977 245 467.457 245.569 467.519 246.265L473.408 312.317C473.47 313.012 474.071 313.735 474.744 313.921L499.733 320.86C500.406 321.047 501.507 321.047 502.181 320.86L527.245 313.91C527.919 313.724 528.521 313.002 528.582 312.306L534.481 246.265C534.543 245.569 534.022 245 533.324 245L468.676 245ZM521.94 260.149C521.884 260.769 521.788 261.846 521.726 262.542L521.571 264.275C521.509 264.971 521.42 265.965 521.373 266.485 521.326 267.005 521.282 267.431 521.273 267.431 521.266 267.431 520.687 267.431 519.989 267.431L502.27 267.431C501.571 267.431 500.994 267.431 500.987 267.431 500.979 267.431 500.401 267.431 499.703 267.431L490.371 267.431C489.672 267.431 489.152 268 489.214 268.696L489.758 274.78C489.82 275.476 490.443 276.045 491.141 276.045L499.703 276.045C500.401 276.045 500.979 276.045 500.987 276.045 500.994 276.045 501.572 276.045 502.27 276.045L516.987 276.045C517.685 276.045 518.766 276.045 519.389 276.045 520.011 276.045 520.474 276.553 520.418 277.173 520.361 277.794 520.264 278.871 520.202 279.567L518.452 299.183C518.389 299.879 518.31 300.767 518.276 301.158 518.242 301.548 517.663 302.021 516.99 302.207L502.224 306.302C501.551 306.488 500.992 306.642 500.981 306.645 500.971 306.647 500.412 306.496 499.738 306.309L484.957 302.208C484.284 302.021 483.682 301.299 483.62 300.603L482.669 289.924C482.607 289.228 483.128 288.659 483.826 288.659L485.175 288.659C485.874 288.659 487.017 288.659 487.715 288.659L489.727 288.659C490.425 288.659 491.047 289.228 491.11 289.924L491.483 294.104C491.545 294.8 492.147 295.518 492.822 295.7L499.736 297.568C500.41 297.75 500.964 297.899 500.967 297.899 500.97 297.899 501.524 297.749 502.199 297.567L509.125 295.696C509.799 295.513 510.402 294.795 510.465 294.1L511.216 285.724C511.278 285.028 510.758 284.459 510.059 284.459L502.27 284.459C501.572 284.459 500.994 284.459 500.987 284.459 500.979 284.459 500.401 284.459 499.703 284.459L483.45 284.459C482.751 284.459 482.129 283.889 482.067 283.194L480.224 262.542C480.162 261.847 480.066 260.77 480.01 260.149 479.955 259.528 480.481 259.021 481.18 259.021L499.703 259.021C500.401 259.021 500.979 259.021 500.987 259.021 500.994 259.021 501.572 259.021 502.27 259.021L520.771 259.021C521.469 259.02 521.995 259.528 521.94 260.149Z" fill="#DD512A"/></g></svg>