<svg width="75" height="76" xmlns="http://www.w3.org/2000/svg" xmlns:xlink="http://www.w3.org/1999/xlink" overflow="hidden"><defs><clipPath id="clip0"><rect x="472" y="431" width="75" height="76"/></clipPath></defs><g clip-path="url(#clip0)" transform="translate(-472 -431)"><path d="M63.75 0C69.9632-2.08167e-15 75 5.0368 75 11.25L75 63.75C75 69.9632 69.9632 75 63.75 75L11.25 75C5.0368 75 1.56462e-06 69.9632 1.56462e-06 63.75L1.56462e-06 11.25C1.56462e-06 5.0368 5.0368 1.56462e-06 11.25 1.56462e-06Z" fill="#F7DF1E" transform="matrix(1 0 0 1.01333 472 431)"/><path d="M47.4609 54.1992C48.9258 56.6895 50.9766 58.4473 54.3457 58.4473 57.2754 58.4473 59.1797 56.9824 59.1797 54.9316 59.1797 52.5879 57.2754 51.709 54.0527 50.2441L52.2949 49.5117C47.168 47.3145 43.7988 44.6777 43.7988 38.9648 43.7988 33.6914 47.7539 29.5898 54.0527 29.5898 58.5938 29.5898 61.8164 31.2012 64.0137 35.3027L58.5938 38.8184C57.4219 36.6211 56.1035 35.7422 54.0527 35.7422 52.002 35.7422 50.6836 37.0605 50.6836 38.8184 50.6836 40.8691 52.002 41.748 55.0781 43.0664L56.8359 43.7988C62.8418 46.4355 66.2109 48.9258 66.2109 54.9316 66.2109 61.2305 61.2305 64.7461 54.4922 64.7461 47.9004 64.7461 43.6523 61.6699 41.6016 57.5684ZM22.5586 54.7852C23.7305 56.6895 24.6094 58.4473 27.0996 58.4473 29.4434 58.4473 30.9082 57.5684 30.9082 54.0527L30.9082 29.7363 37.9395 29.7363 37.9395 53.7598C37.9395 61.084 33.6914 64.3066 27.3926 64.3066 21.6797 64.3066 18.457 61.377 16.8457 57.8613Z" transform="matrix(1 0 0 1.01333 472 431)"/></g></svg>