<svg width="75" height="75" xmlns="http://www.w3.org/2000/svg" xmlns:xlink="http://www.w3.org/1999/xlink" overflow="hidden"><defs><clipPath id="clip0"><rect x="364" y="536" width="75" height="75"/></clipPath><linearGradient x1="391.121" y1="574.091" x2="411.362" y2="580.925" gradientUnits="userSpaceOnUse" spreadMethod="pad" id="fill1"><stop offset="0" stop-color="#999875"/><stop offset="0.231" stop-color="#999875"/><stop offset="0.563" stop-color="#9B9977"/><stop offset="0.683" stop-color="#A09F7E"/><stop offset="0.768" stop-color="#A9A889"/><stop offset="0.837" stop-color="#B7B69A"/><stop offset="0.896" stop-color="#C9C7B0"/><stop offset="0.948" stop-color="#DEDDCB"/><stop offset="0.994" stop-color="#F8F6EB"/><stop offset="1" stop-color="#FBF9EF"/></linearGradient><linearGradient x1="398.54" y1="540.556" x2="412.713" y2="595.568" gradientUnits="userSpaceOnUse" spreadMethod="pad" id="fill2"><stop offset="0" stop-color="#48A547"/><stop offset="1" stop-color="#3F9143"/></linearGradient><linearGradient x1="385.547" y1="572.926" x2="410.354" y2="567.291" gradientUnits="userSpaceOnUse" spreadMethod="pad" id="fill3"><stop offset="0" stop-color="#41A247"/><stop offset="0.352" stop-color="#4BA74B"/><stop offset="0.956" stop-color="#67B554"/><stop offset="1" stop-color="#69B655"/></linearGradient></defs><g clip-path="url(#clip0)" transform="translate(-364 -536)"><path d="M402.953 606.312 401.193 605.729C401.193 605.729 401.427 596.823 398.205 596.197 396.095 593.741 398.516 491.335 406.227 595.848 404.764 596.59 403.645 597.869 403.103 599.417 402.813 601.704 402.763 604.015 402.953 606.312Z" fill="url(#fill1)"/><path d="M403.905 597.709C413.47 590.508 418.033 578.441 415.623 566.713 412.178 551.513 404.02 546.516 403.141 544.609 402.382 543.421 401.735 542.165 401.207 540.859L401.856 583.208C401.856 583.208 400.511 596.15 403.905 597.709Z" fill="url(#fill2)"/><path d="M400.298 598.271C400.298 598.271 385.952 588.5 386.781 571.215 386.938 560.672 391.656 550.713 399.716 543.915 400.66 543.114 401.184 541.924 401.139 540.688 402.032 542.609 401.887 569.382 401.98 572.513 402.344 584.694 401.303 595.972 400.298 598.271Z" fill="url(#fill3)"/></g></svg>