<svg width="76" height="76" xmlns="http://www.w3.org/2000/svg" xmlns:xlink="http://www.w3.org/1999/xlink" overflow="hidden"><defs><clipPath id="clip0"><rect x="686" y="431" width="76" height="76"/></clipPath></defs><g clip-path="url(#clip0)" transform="translate(-686 -431)"><path d="M724.792 483.06C724.792 483.06 724.776 482.997 724.76 482.87 724.792 482.997 724.792 483.06 724.792 483.06Z" fill="#F50057"/><path d="M729.344 444.656C729.344 444.656 728.75 442.479 729.542 440.698 730.333 438.917 730.333 437.729 728.75 435.948 731.917 435.75 733.104 437.927 733.104 437.927L733.144 438.179C733.331 439.392 732.704 440.544 731.646 441.168 730.68 441.737 729.641 442.775 729.344 444.656Z" fill="#F50057"/><path d="M751.914 488.38C751.946 488.047 752.453 483.567 751.312 481.477 748.938 488.19 746.562 494.333 739.643 498.688 740.625 496.708 742.208 493.542 743.792 488.792 739.042 495.125 729.542 501.458 722.417 501.854 727.23 499.194 729.938 495.774 731.125 493.542 731.125 493.542 728.354 494.333 724.982 494.729 729.542 491.958 732.708 487.018 731.125 479.292 727.958 489.188 723.604 492.354 717.857 492.94 712.125 493.542 706.979 490.565 706.979 490.565L708.958 490.375C708.958 490.375 703.812 486.417 705.602 481.271 705.681 481.018 705.776 480.78 705.887 480.558 707.185 477.677 711.602 479.133 711.143 482.253L711.143 482.268C711.143 482.268 712.521 486.021 716.273 485.023 717.477 483.06 718.268 481.065 718.268 481.065L718.854 483.646C718.854 483.646 721.625 482.458 721.625 480.273 724 481.176 724.602 482.3 724.744 482.791 724.333 480.574 720.754 465.327 701.802 465.548L698.492 468.62C698.271 468.826 697.922 468.652 697.954 468.367L698.208 465.833 698.429 465.612C698.366 465.628 698.287 465.612 698.223 465.612L698.208 465.833 696.909 467.037C696.688 467.242 696.339 467.068 696.371 466.783L696.529 465.168C693.774 463.997 693.521 460.893 693.521 460.893 693.521 460.893 690.085 459.927 691.542 455.542 692.333 453.167 694.233 452.929 695.041 453.119 696.07 453.357 697.131 453.372 698.112 452.977 699.537 452.407 701.358 451.314 702.625 449.208 705 445.25 708.562 443.667 716.273 443.667 726.486 443.667 730.602 446.802 731.078 447.182 730.792 446.849 729.067 444.553 732.708 441.102 736.302 437.682 735.653 436.874 735.511 436.747 736.049 436.906 743.032 439.281 743.792 448.417 744.583 457.917 733.5 459.896 733.5 459.896 733.5 459.896 747.75 462.667 747.94 449.208 750.727 450.792 756.458 456.729 757.25 469.602 758.026 482.078 752.247 488.047 751.914 488.38Z" fill="#F50057"/><path d="M698.429 465.612 698.208 465.833 698.223 465.612C698.287 465.612 698.366 465.628 698.429 465.612Z" fill="#F50057"/><path d="M698.429 465.612 698.208 465.833 698.223 465.612C698.287 465.612 698.366 465.628 698.429 465.612Z" fill="#F50057"/></g></svg>