<svg width="75" height="76" xmlns="http://www.w3.org/2000/svg" xmlns:xlink="http://www.w3.org/1999/xlink" overflow="hidden"><defs><clipPath id="clip0"><rect x="459" y="338" width="75" height="76"/></clipPath></defs><g clip-path="url(#clip0)" transform="translate(-459 -338)"><path d="M33.218 74.8609C32.1864 74.8609 31.2236 74.5858 30.3296 74.1044L21.1825 68.6712C19.807 67.9147 20.4947 67.6396 20.9074 67.5021 22.7643 66.8831 23.1082 66.7456 25.0339 65.645 25.2402 65.5074 25.5153 65.5762 25.7216 65.7138L32.7366 69.9091C33.0117 70.0466 33.3555 70.0466 33.5619 69.9091L61.0028 54.0223C61.2779 53.8848 61.4154 53.6097 61.4154 53.2658L61.4154 21.5607C61.4154 21.2169 61.2779 20.9418 61.0028 20.8042L33.5619 4.98615C33.2868 4.84858 32.9429 4.84858 32.7366 4.98615L5.29562 20.8042C5.02054 20.9418 4.88297 21.2857 4.88297 21.5607L4.88297 53.2658C4.88297 53.5409 5.02054 53.8848 5.29562 54.0223L12.792 58.3549C16.8497 60.4183 19.3944 58.0111 19.3944 55.6041L19.3944 24.3117C19.3944 23.8991 19.7382 23.4864 20.2196 23.4864L23.7271 23.4864C24.1398 23.4864 24.5524 23.8303 24.5524 24.3117L24.5524 55.6041C24.5524 61.0373 21.5951 64.2008 16.4371 64.2008 14.8552 64.2008 13.6173 64.2008 10.1098 62.4815L2.88851 58.3549C1.10039 57.3234 1.47517e-14 55.3978 1.47517e-14 53.3346L1.47517e-14 21.6295C1.47517e-14 19.5663 1.10039 17.6406 2.88851 16.609L30.3296 0.722131C32.0489-0.24071 34.3871-0.24071 36.1064 0.722131L63.5476 16.609C65.3356 17.6406 66.436 19.5663 66.436 21.6295L66.436 53.3346C66.436 55.3978 65.3356 57.3234 63.5476 58.3549L36.1064 74.242C35.2124 74.6546 34.1808 74.8609 33.218 74.8609L33.218 74.8609ZM41.6772 53.0593C29.6416 53.0593 27.1658 47.5575 27.1658 42.8808 27.1658 42.4682 27.5097 42.0555 27.9911 42.0555L31.5675 42.0555C31.9801 42.0555 32.324 42.3306 32.324 42.7433 32.8741 46.3881 34.4559 48.1765 41.7459 48.1765 47.523 48.1765 49.9991 46.8698 49.9991 43.7748 49.9991 41.9868 49.3111 40.6801 40.3017 39.7858 32.8054 39.0293 28.1286 37.3788 28.1286 31.3954 28.1286 25.8248 32.8054 22.5236 40.6456 22.5236 49.4486 22.5236 53.7815 25.5496 54.3317 32.1519 54.3317 32.3582 54.2629 32.5645 54.1254 32.7709 53.9878 32.9084 53.7815 33.0459 53.5752 33.0459L49.9991 33.0459C49.6549 33.0459 49.3111 32.7709 49.2423 32.427 48.417 28.6446 46.2851 27.4067 40.6456 27.4067 34.3183 27.4067 33.5619 29.6074 33.5619 31.2579 33.5619 33.2525 34.4559 33.8715 42.9838 34.9718 51.4433 36.0721 55.432 37.6539 55.432 43.5685 55.3632 49.6207 50.4117 53.0593 41.6772 53.0593L41.6772 53.0593Z" fill="#539E43" transform="matrix(1 0 0 1.01333 463.282 338)"/></g></svg>