<svg width="75" height="76" xmlns="http://www.w3.org/2000/svg" xmlns:xlink="http://www.w3.org/1999/xlink" overflow="hidden"><defs><clipPath id="clip0"><rect x="783" y="431" width="75" height="76"/></clipPath></defs><g clip-path="url(#clip0)" transform="translate(-783 -431)"><path d="M72.4454 44.9108C72.0094 43.5901 70.867 42.6702 69.3898 42.4494 68.6932 42.3455 67.8955 42.3898 66.9514 42.5844 65.306 42.9239 64.0852 43.0531 63.1943 43.0781 66.5571 37.4006 69.2915 30.9261 70.8656 24.8314 73.4108 14.9768 72.0508 10.4873 70.4614 8.45651 66.2548 3.08176 60.1176 0.194163 52.7136 0.105648 48.7639 0.0574429 45.2966 0.837287 43.4878 1.39794 41.8037 1.10099 39.9929 0.93504 38.0926 0.904304 34.5312 0.847534 31.3844 1.62385 28.6955 3.21949 27.2066 2.71627 24.8176 2.00663 22.0585 1.55364 15.5692 0.488264 10.3392 1.3185 6.51372 4.02099 1.88134 7.29321-0.266219 12.9784 0.13101 20.9188 0.256981 23.4399 1.66735 31.1102 3.88781 38.3847 5.16398 42.5659 6.5248 46.0381 7.93247 48.7057 9.92869 52.4884 12.0647 54.7159 14.4626 55.5156 15.8068 55.9636 18.2488 56.2773 20.8175 54.1384 21.143 54.5324 21.5772 54.9241 22.1538 55.2881 22.8857 55.7497 23.781 56.127 24.6749 56.3506 27.8969 57.156 30.9148 56.9545 33.4895 55.8256 33.5054 56.2835 33.5176 56.721 33.5278 57.0989 33.5452 57.7116 33.5619 58.3125 33.5844 58.8744 33.7369 62.6739 33.9955 65.6281 34.7614 67.6952 34.8034 67.8091 34.8599 67.9821 34.9196 68.1659 35.3017 69.3358 35.9406 71.2943 37.5662 72.8281 39.2494 74.417 41.2855 74.9043 43.1503 74.9043 44.0855 74.9043 44.9778 74.7815 45.7605 74.6139 48.5503 74.0159 51.7188 73.1051 54.0108 69.8415 56.1778 66.7562 57.2312 62.1094 57.4219 54.7872 57.4466 54.5804 57.4693 54.3827 57.4912 54.1943 57.5062 54.067 57.5213 53.9372 57.5366 53.8074L58.0472 53.8523 58.1787 53.8611C61.0202 53.9906 64.4946 53.3881 66.6284 52.3969 68.3145 51.6145 73.7176 48.7619 72.4454 44.9108" transform="matrix(1 0 0 1.01333 784.136 431)"/><path d="M67.5869 45.6597C59.1381 47.4026 58.5571 44.542 58.5571 44.542 67.4778 31.3054 71.2068 14.5033 67.9886 10.3911 59.2094-0.826202 44.0119 4.47886 43.7582 4.61659L43.6767 4.63119C42.0074 4.28469 40.1395 4.07827 38.0398 4.04401 34.217 3.98136 31.317 5.04622 29.1165 6.71491 29.1165 6.71491 2.0058-4.45366 3.26668 20.7615 3.53491 26.1259 10.9553 61.3506 19.806 50.7111 23.0409 46.8205 26.1665 43.531 26.1665 43.531 27.719 44.5622 29.5776 45.0884 31.5259 44.8994L31.6773 44.771C31.6301 45.254 31.6517 45.7264 31.7378 46.2858 29.4577 48.8332 30.1278 49.2804 25.5698 50.2188 20.9577 51.1693 23.6671 52.8614 25.4361 53.3037 27.5806 53.8401 32.542 54.5997 35.8943 49.9068L35.7608 50.4423C36.654 51.158 37.2812 55.0966 37.1761 58.6673 37.071 62.2378 37.0009 64.6892 37.7048 66.604 38.4088 68.5188 39.1102 72.827 45.1023 71.5432 50.1088 70.4702 52.7034 67.6898 53.0645 63.052 53.3205 59.7545 53.9003 60.242 53.9366 57.294L54.4017 55.8986C54.9378 51.429 54.4869 49.9869 57.5713 50.6577L58.321 50.7236C60.5915 50.8267 63.5628 50.3582 65.3068 49.5477 69.0619 47.8051 71.2892 44.8952 67.5864 45.6597L67.5869 45.6597" fill="#336791" transform="matrix(1 0 0 1.01333 784.136 431)"/><path d="M30.7034 23.1605C29.9423 23.0545 29.2526 23.1526 28.9037 23.4167 28.7074 23.5653 28.6469 23.7375 28.6304 23.8561 28.5866 24.17 28.8068 24.517 28.9418 24.696 29.3241 25.2028 29.8827 25.5511 30.4355 25.6279 30.5156 25.639 30.5955 25.6443 30.6747 25.6443 31.5966 25.6443 32.4349 24.9265 32.5088 24.3966 32.6011 23.733 31.6378 23.2905 30.7034 23.1605" fill="#FFFFFF" transform="matrix(1 0 0 1.01333 784.136 431)"/><path d="M55.9261 23.1815 55.9261 23.1815C55.8534 22.6613 54.9278 22.513 54.0494 22.6351 53.1722 22.7574 52.3216 23.1533 52.3926 23.6747 52.4497 24.0801 53.1815 24.7723 54.048 24.7721 54.1213 24.7721 54.1952 24.7672 54.2696 24.7568 54.848 24.6767 55.2724 24.3094 55.4739 24.0976 55.7812 23.7751 55.9588 23.4153 55.9261 23.1815" fill="#FFFFFF" transform="matrix(1 0 0 1.01333 784.136 431)"/><path d="M70.3983 45.4616C70.0761 44.4875 69.0392 44.1741 67.3165 44.5298 62.2014 45.5855 60.3696 44.8543 59.7682 44.4114 63.744 38.3543 67.0148 31.033 68.7793 24.2019 69.6151 20.9661 70.0767 17.9611 70.1145 15.5119 70.1562 12.8232 69.6983 10.8478 68.754 9.64099 64.9466 4.77582 59.3585 2.1662 52.5943 2.09448 47.944 2.04224 44.0151 3.23241 43.2534 3.56699 41.6494 3.1681 39.9009 2.92321 37.9972 2.89196 34.5062 2.83552 31.4886 3.67131 28.9903 5.37477 27.9051 4.97099 25.1005 4.00824 21.6709 3.4558 15.7412 2.50095 11.0293 3.22435 7.66676 5.60656 3.65452 8.44912 1.80222 13.5303 2.16116 20.7086 2.28192 23.1239 3.65787 30.5534 5.8296 37.6685 8.68812 47.0332 11.7953 52.3347 15.0648 53.4253 15.4474 53.5528 15.8888 53.642 16.3752 53.642 17.5679 53.642 19.03 53.1045 20.5514 51.2756 23.0784 48.2355 25.4378 45.6881 26.3074 44.7625 27.5927 45.4523 29.0045 45.8375 30.4486 45.8761 30.4511 45.9139 30.4551 45.9517 30.4585 45.9892 30.1687 46.333 29.931 46.6341 29.7284 46.8912 28.7278 48.1614 28.5196 48.4258 25.2988 49.0892 24.3828 49.2781 21.9492 49.7795 21.9137 51.4852 21.8749 53.3489 24.7899 54.1315 25.1222 54.2145 26.2796 54.5043 27.3945 54.6472 28.458 54.6472 31.044 54.6469 33.3199 53.7972 35.1386 52.1526 35.0827 58.7963 35.3597 65.3429 36.1574 67.3375 36.8105 68.9702 38.4068 72.9611 43.4483 72.9608 44.1881 72.9608 45.0023 72.8747 45.898 72.6827 51.1597 71.5545 53.4446 69.2293 54.3284 64.1023 54.8014 61.3622 55.6131 54.8193 55.9949 51.3097 56.8006 51.5611 57.8378 51.6761 58.9591 51.6759 61.2977 51.6759 63.9963 51.179 65.6886 50.3935 67.5898 49.5105 71.0205 47.344 70.3983 45.4616L70.3983 45.4616ZM57.8682 21.7456C57.8508 22.7818 57.7082 23.7224 57.5571 24.7043 57.3943 25.7602 57.2261 26.852 57.1838 28.1774 57.142 29.467 57.3031 30.8082 57.4588 32.1048 57.7736 34.7239 58.0966 37.4207 56.8463 40.0815 56.652 39.7364 56.4642 39.3597 56.2923 38.9426 56.1369 38.5659 55.7994 37.9608 55.3324 37.1233 53.5142 33.8631 49.2571 26.2285 51.4364 23.1132 52.0855 22.1857 53.733 21.2325 57.8682 21.7456L57.8682 21.7456ZM52.8557 4.19264C58.9165 4.32651 63.7105 6.59384 67.1051 10.9312 69.7085 14.2582 66.8418 29.3966 58.5426 42.4565 58.4605 42.3523 58.3773 42.2472 58.2909 42.1392 58.2562 42.096 58.2213 42.0523 58.1858 42.008 60.3304 38.4662 59.9111 34.9619 59.5378 31.8551 59.3844 30.5801 59.2398 29.3759 59.2764 28.2447 59.3145 27.0455 59.473 26.0174 59.6264 25.023 59.8148 23.7976 60.0065 22.5298 59.9537 21.0351 59.9932 20.8784 60.0091 20.6932 59.9883 20.4733 59.8534 19.0399 58.217 14.7507 54.8818 10.8679 53.0574 8.74457 50.3969 6.3681 46.7642 4.76523 48.3267 4.44139 50.4634 4.1394 52.8557 4.19264L52.8557 4.19264ZM18.9415 49.9369C17.2654 51.9523 16.1078 51.5659 15.7272 51.4392 13.2469 50.6119 10.3693 45.3699 7.83205 37.0574 5.63662 29.8648 4.35355 22.6321 4.2521 20.604 3.93148 14.1899 5.48628 9.7196 8.87358 7.31741 14.3861 3.4081 23.4493 5.74798 27.091 6.9348 27.0386 6.98636 26.9842 7.03472 26.9323 7.08713 20.9564 13.1225 21.0981 23.434 21.1128 24.0641 21.1122 24.3074 21.1326 24.6517 21.1606 25.1253 21.2634 26.8595 21.4547 30.0875 20.9436 33.7429 20.4684 37.1398 21.5155 40.4645 23.8159 42.8648 24.0541 43.1131 24.3027 43.3466 24.5595 43.5659 23.5354 44.6625 21.3101 47.0875 18.9415 49.9369L18.9415 49.9369ZM25.3276 41.4162C23.4734 39.4815 22.6314 36.7906 23.0171 34.033 23.5569 30.1713 23.3576 26.8082 23.2506 25.0014 23.2356 24.7486 23.2223 24.5271 23.2144 24.3522 24.0875 23.5782 28.1332 21.4104 31.0182 22.0715 32.3349 22.3731 33.1372 23.2695 33.4707 24.8118 35.1969 32.7955 33.6991 36.123 32.4957 38.7972 32.2477 39.348 32.0134 39.8687 31.8134 40.4074L31.6582 40.8239C31.2656 41.8767 30.9003 42.8557 30.6739 43.7852 28.7028 43.7793 26.7855 42.9375 25.3276 41.4162L25.3276 41.4162ZM25.6301 52.1832C25.0546 52.0395 24.537 51.7898 24.2333 51.5827 24.4869 51.4631 24.9384 51.3008 25.7213 51.1398 29.5102 50.3597 30.0955 49.8091 31.3733 48.1866 31.6662 47.8148 31.9983 47.3929 32.4582 46.8793 32.4582 46.879 32.4585 46.879 32.4588 46.8787 33.1437 46.1116 33.4571 46.2418 34.0253 46.4776 34.4858 46.6682 34.9344 47.2452 35.1162 47.8804 35.2023 48.1804 35.2989 48.75 34.9827 49.1929 32.3134 52.9304 28.4236 52.8824 25.6301 52.1832L25.6301 52.1832ZM45.4594 70.6355C40.8242 71.6287 39.183 69.2636 38.1014 66.5599 37.4034 64.8145 37.0602 56.9432 37.3037 48.2511 37.3068 48.1355 37.2903 48.0236 37.2585 47.9187 37.2307 47.7159 37.1881 47.5108 37.129 47.3045 36.767 46.0398 35.8849 44.9818 34.8267 44.5432 34.4062 44.369 33.6347 44.0494 32.7074 44.2866 32.9051 43.4719 33.248 42.5517 33.6199 41.5554L33.7759 41.1364C33.9514 40.6639 34.1719 40.1744 34.4048 39.6562 35.6642 36.8585 37.3889 33.0264 35.517 24.3692 34.8159 21.1267 32.4744 19.5433 28.925 19.911 26.7969 20.1312 24.8502 20.9898 23.8792 21.4821 23.6705 21.5879 23.4795 21.69 23.3011 21.7896 23.572 18.5224 24.5961 12.4169 28.4264 8.55395 30.8378 6.12185 34.0494 4.92077 37.9625 4.98543 45.673 5.11173 50.617 9.06858 53.4074 12.3658 55.8119 15.2072 57.1139 18.0693 57.6335 19.6128 53.7259 19.2156 51.0682 19.9871 49.721 21.9131 46.7901 26.1027 51.3244 34.2347 53.5037 38.1429 53.9034 38.8591 54.2483 39.4781 54.3568 39.7412 55.0665 41.4611 55.9852 42.6094 56.656 43.4474 56.8616 43.7043 57.0611 43.9534 57.2128 44.171 56.0293 44.5122 53.9034 45.3006 54.0972 49.2412 53.9409 51.2185 52.8298 60.4759 52.2653 63.7466 51.5202 68.0676 49.9301 69.677 45.4594 70.6355L45.4594 70.6355ZM64.8071 48.4946C63.5969 49.0562 61.5716 49.4778 59.6477 49.5682 57.5224 49.6676 56.4409 49.3301 56.1864 49.1224 56.0668 46.6668 56.981 46.4102 57.9483 46.1386 58.1003 46.0957 58.2486 46.0543 58.3918 46.0043 58.4807 46.0767 58.5781 46.1486 58.6849 46.219 60.3929 47.3463 63.4392 47.4679 67.7401 46.5801 67.7557 46.577 67.7716 46.5739 67.7872 46.5707 67.2071 47.1131 66.2145 47.8409 64.8071 48.4946L64.8071 48.4946Z" fill="#FFFFFF" transform="matrix(1 0 0 1.01333 784.136 431)"/></g></svg>