<svg width="76" height="75" xmlns="http://www.w3.org/2000/svg" xmlns:xlink="http://www.w3.org/1999/xlink" overflow="hidden"><defs><clipPath id="clip0"><rect x="580" y="535" width="76" height="75"/></clipPath></defs><g clip-path="url(#clip0)" transform="translate(-580 -535)"><path d="M67.011 56.352 41.1075 2.235C39.7725-0.5535 35.898-0.783 34.245 1.8285L5.5185 47.1915C4.899 48.1695 4.917 49.4205 5.5635 50.3805L20.034 71.865C20.9325 73.1985 22.584 73.8 24.1275 73.356L64.6185 61.6935C66.894 61.038 68.0355 58.491 67.011 56.352ZM61.29 58.2975 27.2355 67.851C26.4465 68.073 25.7055 67.374 25.8765 66.5715L37.95 10.1235C38.1675 9.1065 39.546 8.9415 39.996 9.879L62.2605 56.2005C62.649 57.0495 62.1885 58.0455 61.29 58.2975Z" transform="matrix(1.01333 0 0 1 580 535)"/></g></svg>