<svg width="76" height="76" xmlns="http://www.w3.org/2000/svg" xmlns:xlink="http://www.w3.org/1999/xlink" overflow="hidden"><defs><clipPath id="clip0"><rect x="564" y="243" width="76" height="76"/></clipPath></defs><g clip-path="url(#clip0)" transform="translate(-564 -243)"><path d="M608.175 281C608.175 284.413 605.413 287.175 602 287.175 598.587 287.175 595.825 284.413 595.825 281 595.825 277.587 598.587 274.825 602 274.825 605.413 274.825 608.175 277.587 608.175 281Z" fill="#8BB7F0"/><path d="M602 287.65C598.334 287.65 595.35 284.667 595.35 281 595.35 277.333 598.334 274.35 602 274.35 605.666 274.35 608.65 277.333 608.65 281 608.65 284.667 605.666 287.65 602 287.65ZM602 275.3C598.856 275.3 596.3 277.856 596.3 281 596.3 284.144 598.856 286.7 602 286.7 605.144 286.7 607.7 284.144 607.7 281 607.7 277.856 605.144 275.3 602 275.3Z" fill="#4E7AB5"/><path d="M587.25 314.728C585.625 314.728 584.145 314.355 582.85 313.622 580.684 312.394 579.187 310.277 578.398 307.333 577.481 303.906 577.591 299.355 578.714 294.149 569.658 291.034 564.475 286.254 564.475 281 564.475 275.745 569.657 270.966 578.713 267.852 577.59 262.645 577.48 258.094 578.396 254.667 579.185 251.722 580.682 249.605 582.847 248.378 584.141 247.645 585.622 247.272 587.247 247.272 591.416 247.272 596.644 249.866 602.002 254.585 607.36 249.87 612.586 247.279 616.75 247.279 618.375 247.279 619.855 247.651 621.15 248.385 623.313 249.611 624.811 251.724 625.6 254.665 626.518 258.091 626.407 262.643 625.284 267.851 634.341 270.965 639.525 275.745 639.525 281 639.525 286.255 634.341 291.035 625.284 294.15 626.406 299.357 626.517 303.908 625.599 307.334 624.81 310.276 623.314 312.389 621.153 313.615 619.857 314.349 618.376 314.721 616.752 314.721 612.585 314.721 607.357 312.13 602.001 307.417 596.643 312.135 591.416 314.728 587.25 314.728ZM582.37 295.256C581.429 299.737 581.323 303.565 582.07 306.351 582.585 308.275 583.477 309.61 584.724 310.317 585.44 310.723 586.29 310.929 587.25 310.929 590.475 310.929 594.719 308.761 599.24 304.814 596.974 302.532 594.763 299.949 592.659 297.127 589.019 296.732 585.561 296.103 582.37 295.256ZM604.761 304.812C609.281 308.755 613.526 310.921 616.751 310.922 617.711 310.922 618.561 310.716 619.279 310.31 620.522 309.605 621.412 308.274 621.926 306.352 622.673 303.564 622.568 299.737 621.627 295.257 618.433 296.104 614.974 296.733 611.336 297.128 609.232 299.95 607.024 302.532 604.761 304.812ZM597.788 297.523C599.167 299.211 600.579 300.785 602 302.216 603.417 300.786 604.83 299.211 606.208 297.523 604.792 297.591 603.381 297.625 602 297.625 600.618 297.625 599.206 297.591 597.788 297.523ZM594.732 293.52C597.102 293.722 599.546 293.825 602 293.825 604.456 293.825 606.897 293.722 609.264 293.521 610.675 291.541 612.022 289.466 613.267 287.351 614.472 285.303 615.605 283.167 616.637 280.999 615.608 278.837 614.475 276.701 613.268 274.649 612.025 272.538 610.679 270.464 609.264 268.479 606.899 268.278 604.458 268.175 602 268.175 599.541 268.175 597.099 268.278 594.735 268.48 593.32 270.462 591.972 272.536 590.727 274.65 589.521 276.701 588.388 278.837 587.359 281.002 588.386 283.162 589.519 285.298 590.726 287.352 591.965 289.456 593.311 291.53 594.732 293.52ZM618.616 285.54C617.946 286.819 617.25 288.073 616.541 289.277 615.825 290.495 615.064 291.717 614.274 292.922 616.529 292.574 618.687 292.128 620.706 291.592 620.146 289.645 619.444 287.615 618.616 285.54ZM583.289 291.591C585.309 292.126 587.466 292.573 589.718 292.921 588.923 291.708 588.162 290.486 587.452 289.277 586.744 288.074 586.048 286.822 585.378 285.543 584.554 287.608 583.853 289.636 583.289 291.591ZM620.825 281C622.277 284.221 623.46 287.406 624.348 290.478 631.38 288.004 635.725 284.395 635.725 281 635.725 277.605 631.38 273.996 624.348 271.522 623.461 274.594 622.278 277.779 620.825 281ZM579.648 271.524C572.619 273.997 568.275 277.606 568.275 281 568.275 284.395 572.619 288.004 579.65 290.477 580.538 287.404 581.72 284.22 583.17 281.002 581.719 277.783 580.537 274.599 579.648 271.524ZM583.288 270.409C583.852 272.361 584.553 274.39 585.378 276.459 586.047 275.184 586.742 273.931 587.453 272.724 588.167 271.509 588.928 270.287 589.721 269.079 587.466 269.426 585.309 269.873 583.288 270.409ZM614.276 269.078C615.071 270.292 615.832 271.513 616.543 272.724 617.251 273.927 617.948 275.18 618.618 276.459 619.444 274.391 620.145 272.362 620.709 270.408 618.686 269.872 616.529 269.425 614.276 269.078ZM587.247 251.072C586.287 251.072 585.438 251.277 584.723 251.684 583.477 252.391 582.584 253.725 582.068 255.65 581.322 258.438 581.427 262.266 582.369 266.745 585.561 265.898 589.021 265.268 592.661 264.873 594.768 262.05 596.979 259.469 599.242 257.189 594.72 253.24 590.473 251.072 587.247 251.072ZM611.337 264.872C614.975 265.267 618.434 265.896 621.628 266.743 622.57 262.263 622.676 258.435 621.928 255.647 621.413 253.726 620.522 252.395 619.278 251.69 618.561 251.284 617.711 251.078 616.75 251.078 613.526 251.078 609.283 253.245 604.762 257.189 607.023 259.468 609.232 262.05 611.337 264.872ZM602 264.375C603.381 264.375 604.792 264.409 606.209 264.477 604.832 262.791 603.42 261.218 602.002 259.786 600.58 261.22 599.169 262.793 597.792 264.477 599.208 264.409 600.619 264.375 602 264.375Z" fill="#8BB7F0"/><path d="M587.247 247.747C591.517 247.747 596.744 250.512 602.003 255.221 607.261 250.515 612.485 247.754 616.751 247.754 618.292 247.754 619.695 248.105 620.917 248.798 622.966 249.959 624.387 251.974 625.141 254.789 626.164 258.51 625.95 263.092 624.729 268.165 633.49 271.091 639.05 275.709 639.05 281 639.05 286.291 633.49 290.909 624.728 293.836 626.002 299.321 626.216 304.026 625.14 307.211 624.386 310.025 622.966 312.041 620.919 313.202 619.695 313.896 618.582 314.25 617.041 314.25 617.04 314.25 616.646 314.25 616.645 314.25 612.378 314.25 607.257 311.486 602 306.782 596.742 311.49 591.517 314.253 587.249 314.253 585.708 314.253 584.305 313.901 583.083 313.209 581.033 312.045 579.61 310.027 578.857 307.211 577.727 303.679 577.955 299.038 579.269 293.835 570.509 290.908 564.95 286.291 564.95 281 564.95 275.71 570.509 271.092 579.268 268.165 578.616 265.258 578.199 262.56 578.184 260.1 578.173 258.156 578.438 256.348 578.856 254.79 579.61 251.972 581.032 249.954 583.082 248.791 584.303 248.098 585.706 247.747 587.247 247.747M582.01 267.333C585.313 266.426 588.981 265.74 592.919 265.322 595.182 262.273 597.55 259.531 599.936 257.167 595.307 253.039 590.8 250.596 587.247 250.596 586.203 250.596 585.276 250.822 584.489 251.27 583.127 252.042 582.159 253.474 581.609 255.527 580.794 258.569 580.979 262.68 582.01 267.333M621.987 267.332C623.018 262.679 623.203 258.567 622.388 255.525 621.839 253.476 620.871 252.047 619.512 251.276 618.724 250.829 617.794 250.603 616.751 250.603 613.201 250.603 608.697 253.042 604.069 257.167 606.454 259.531 608.819 262.273 611.08 265.321 615.016 265.739 618.684 266.425 621.987 267.332M596.753 265.008C598.465 264.906 600.182 264.818 601.967 264.818 603.752 264.818 605.534 264.907 607.246 265.008 605.528 262.843 603.765 260.865 602.001 259.114 600.237 260.865 598.473 262.843 596.753 265.008M602 294.3C604.623 294.3 607.134 294.185 609.522 293.975 610.965 291.964 612.361 289.828 613.675 287.592 614.961 285.408 616.124 283.197 617.162 281 616.124 278.803 614.961 276.593 613.676 274.41 612.361 272.173 610.966 270.038 609.522 268.027 607.135 267.815 604.624 267.7 602 267.7 599.376 267.7 596.864 267.815 594.476 268.026 593.031 270.037 591.635 272.173 590.319 274.409 589.034 276.593 587.872 278.804 586.833 281.001 587.872 283.198 589.033 285.408 590.318 287.591 591.634 289.827 593.029 291.963 594.473 293.974 596.862 294.185 599.375 294.3 602 294.3M618.669 277.592C619.737 275.019 620.622 272.492 621.296 270.075 618.871 269.408 616.192 268.857 613.29 268.453 614.266 269.904 615.217 271.408 616.132 272.964 617.039 274.502 617.881 276.049 618.669 277.592M585.327 277.593C586.113 276.05 586.957 274.503 587.861 272.964 588.777 271.408 589.729 269.905 590.706 268.454 587.804 268.857 585.125 269.409 582.7 270.076 583.374 272.493 584.259 275.019 585.327 277.593M624.029 291.091C631.701 288.492 636.2 284.673 636.2 281 636.2 277.327 631.701 273.508 624.029 270.909 623.123 274.144 621.873 277.543 620.305 280.999 621.873 284.456 623.123 287.855 624.029 291.091M579.969 291.09C580.874 287.856 582.123 284.457 583.692 281.002 582.123 277.546 580.873 274.146 579.969 270.911 572.297 273.51 567.8 277.328 567.8 281 567.8 284.673 572.298 288.491 579.969 291.09M613.29 293.547C616.192 293.144 618.871 292.593 621.296 291.925 620.621 289.508 619.737 286.981 618.669 284.407 617.881 285.95 617.038 287.497 616.132 289.036 615.217 290.592 614.266 292.096 613.29 293.547M590.704 293.546C589.727 292.095 588.776 290.592 587.86 289.037 586.956 287.499 586.113 285.953 585.327 284.41 584.259 286.983 583.375 289.509 582.701 291.925 585.125 292.591 587.803 293.142 590.704 293.546M587.25 311.403C590.802 311.403 595.307 308.961 599.935 304.835 597.547 302.47 595.18 299.727 592.916 296.677 588.98 296.26 585.314 295.574 582.012 294.667 580.982 299.32 580.797 303.431 581.611 306.473 582.16 308.525 583.129 309.957 584.49 310.729 585.276 311.177 586.206 311.403 587.25 311.403M616.751 311.397 616.751 311.397C617.795 311.397 618.723 311.171 619.512 310.724 620.871 309.953 621.837 308.524 622.385 306.474 623.2 303.431 623.015 299.32 621.985 294.668 618.682 295.575 615.015 296.261 611.078 296.678 608.817 299.727 606.451 302.469 604.066 304.834 608.694 308.957 613.199 311.396 616.751 311.397M602 302.888C603.764 301.136 605.527 299.157 607.246 296.992 605.535 297.094 603.865 297.309 602.079 297.309 600.292 297.309 598.462 297.094 596.75 296.992 598.47 299.158 600.235 301.137 602 302.888M586.91 246.868C585.201 246.868 583.979 247.189 582.613 247.964 580.334 249.257 578.761 251.47 577.938 254.543 577.026 257.951 577.105 262.43 578.163 267.54 569.148 270.73 564 275.609 564 281 564 286.392 569.149 291.27 578.164 294.46 577.106 299.57 577.027 304.049 577.94 307.457 578.762 310.528 580.334 312.741 582.615 314.036 583.983 314.811 585.627 315.141 587.335 315.141 591.597 315.141 596.6 312.733 602.001 308.048 607.401 312.728 612.488 315.196 616.75 315.197 618.459 315.197 620.019 314.805 621.387 314.03 623.664 312.739 625.235 310.528 626.057 307.458 626.97 304.05 626.891 299.571 625.834 294.461 634.85 291.271 640 286.392 640 281 640 275.608 634.851 270.729 625.835 267.539 626.893 262.428 626.971 257.949 626.058 254.542 625.235 251.472 623.663 249.261 621.385 247.97 620.018 247.196 618.458 246.803 616.75 246.803 612.489 246.803 607.403 249.272 602.002 253.954 596.6 249.268 591.489 246.866 587.226 246.866L586.91 246.868ZM582.734 266.158C582.295 263.95 582.001 261.881 581.984 260.067 581.97 258.433 582.194 257.011 582.526 255.772 583.008 253.974 583.826 252.738 584.957 252.095 585.599 251.73 586.382 251.484 587.259 251.484 590.281 251.484 594.258 253.553 598.548 257.216 596.438 259.375 594.375 261.794 592.405 264.422 588.999 264.802 585.752 265.384 582.734 266.158L582.734 266.158ZM605.456 257.218C609.745 253.557 613.732 251.553 616.75 251.553 617.628 251.553 618.4 251.738 619.043 252.103 620.173 252.743 620.99 253.977 621.47 255.771 622.301 258.448 622.193 262.007 621.263 266.157 618.245 265.384 614.999 264.801 611.594 264.422 609.625 261.796 607.564 259.377 605.456 257.218L605.456 257.218ZM598.839 263.957C599.881 262.722 600.938 261.553 602.001 260.463 603.064 261.553 604.12 262.722 605.161 263.957 604.098 263.919 603.04 263.9 602 263.9 600.96 263.9 599.903 263.919 598.839 263.957L598.839 263.957ZM594.994 268.935C597.279 268.746 599.633 268.611 602 268.611 604.366 268.611 606.721 268.746 609.004 268.935 610.365 270.853 611.661 272.855 612.858 274.891 614.018 276.865 615.112 278.918 616.109 280.999 615.111 283.081 614.018 285.135 612.857 287.109 611.659 289.146 610.364 291.147 609.003 293.065 606.721 293.254 604.366 293.508 602 293.508 599.632 293.508 597.277 293.253 594.991 293.064 593.63 291.147 592.334 289.145 591.136 287.108 589.975 285.135 588.882 283.082 587.885 281 588.882 278.918 589.976 276.864 591.137 274.89 592.336 272.854 593.632 270.852 594.994 268.935L594.994 268.935ZM618.551 275.323C618.029 274.356 617.495 273.406 616.952 272.482 616.411 271.562 615.843 270.637 615.256 269.719 616.942 270.006 618.567 270.349 620.115 270.745 619.671 272.232 619.148 273.764 618.551 275.323L618.551 275.323ZM583.882 270.745C585.429 270.349 587.055 270.006 588.74 269.719 588.152 270.637 587.585 271.562 587.043 272.481 586.501 273.405 585.966 274.355 585.444 275.322 584.848 273.765 584.325 272.233 583.882 270.745L583.882 270.745ZM621.347 280.999C622.691 277.995 623.804 275.022 624.662 272.139 631.22 274.532 635.25 277.885 635.25 281 635.25 284.115 631.22 287.468 624.662 289.861 623.803 286.977 622.691 284.003 621.347 280.999L621.347 280.999ZM579.335 289.86C572.779 287.467 568.75 284.114 568.75 281 568.75 277.886 572.779 274.533 579.334 272.14 580.192 275.024 581.304 277.997 582.648 281.001 581.305 284.004 580.193 286.977 579.335 289.86L579.335 289.86ZM615.255 292.282C615.842 291.363 616.411 290.438 616.951 289.519 617.495 288.595 618.029 287.644 618.551 286.677 619.148 288.236 619.67 289.768 620.115 291.257 618.566 291.651 616.941 291.995 615.255 292.282L615.255 292.282ZM583.883 291.255C584.326 289.768 584.849 288.237 585.444 286.68 585.965 287.646 586.5 288.596 587.042 289.519 587.583 290.438 588.15 291.362 588.738 292.281 587.054 291.993 585.429 291.65 583.883 291.255L583.883 291.255ZM587.25 310.453C586.372 310.453 585.601 310.268 584.958 309.903 583.827 309.261 583.01 308.025 582.529 306.227 581.739 303.525 581.829 299.965 582.736 295.841 585.753 296.614 588.998 297.198 592.402 297.576 594.373 300.203 596.436 302.623 598.547 304.784 594.258 308.448 590.27 310.454 587.25 310.453L587.25 310.453 587.25 310.453ZM611.593 297.578C614.998 297.198 618.244 296.616 621.262 295.843 622.312 300.346 622.395 303.935 621.468 306.228 620.989 308.023 620.173 309.257 619.044 309.896 618.4 310.261 617.628 310.446 616.752 310.446L616.752 311.396 616.751 310.446C613.73 310.446 609.742 308.442 605.454 304.783 607.563 302.624 609.624 300.205 611.593 297.578L611.593 297.578ZM602 301.539C600.936 300.448 599.878 299.279 598.836 298.043 599.901 298.081 600.959 298.1 602 298.1 603.04 298.1 604.098 298.081 605.161 298.043 604.12 299.279 603.063 300.448 602 301.539L602 301.539Z" fill="#4E7AB5"/></g></svg>