<svg width="76" height="75" xmlns="http://www.w3.org/2000/svg" xmlns:xlink="http://www.w3.org/1999/xlink" overflow="hidden"><defs><clipPath id="clip0"><rect x="571" y="339" width="76" height="75"/></clipPath></defs><g clip-path="url(#clip0)" transform="translate(-571 -339)"><path d="M70.3125 45.8063C70.3125 44.8109 67.6781 44.0047 64.4234 44.0047 61.5922 44.0047 59.2359 44.6156 58.6688 45.4281 53.0656 42.7812 47.4609 40.1344 41.8578 37.4859 39.9078 36.5641 37.6812 36.5734 35.7359 37.5078 29.7703 40.3781 23.8047 43.2484 17.8391 46.1188 16.4891 45.9219 14.8594 45.8047 13.1016 45.8047 8.45 45.8063 4.6875 46.6125 4.6875 47.6078L4.6875 53.0141C4.6875 53.0656 4.73906 53.1141 4.75781 53.1641 4.52969 54.0313 4.86719 55.0469 5.77187 55.4734 14.5859 59.6375 23.3984 63.8 32.2125 67.9641 34.45 69.0219 37.0062 69.0125 39.2375 67.9391 49.3031 63.0953 59.3687 58.2531 69.4359 53.4094 70.1922 53.0453 70.4531 52.1813 70.2313 51.4609 70.2672 51.3781 70.3125 51.2969 70.3125 51.2109L70.3125 45.8063Z" fill="#B71C1C" transform="matrix(1.01333 0 0 1 571 339)"/><path d="M32.2125 61.1844C23.3984 57.2438 14.5859 53.3031 5.77187 49.3625 4.33125 48.7188 4.325 46.6641 5.76094 46.0094 15.7531 41.4594 25.7437 36.9094 35.7359 32.3594 37.6797 31.4734 39.9078 31.4656 41.8578 32.3375 51.0469 36.4469 60.2375 40.5547 69.4266 44.6641 70.6047 45.1906 70.6109 46.8734 69.4359 47.4078 59.3703 51.9922 49.3047 56.5766 39.2375 61.1594 37.0062 62.175 34.45 62.1844 32.2125 61.1844Z" fill="#E53935" transform="matrix(1.01333 0 0 1 571 339)"/><path d="M70.3125 33.8672C70.3125 32.8719 67.6781 32.0656 64.4234 32.0656 61.5922 32.0656 59.2359 32.6766 58.6688 33.4891 53.0656 30.8422 47.4609 28.1953 41.8578 25.5469 39.9078 24.625 37.6812 24.6344 35.7359 25.5688 29.7703 28.4391 23.8047 31.3094 17.8391 34.1797 16.4891 33.9828 14.8594 33.8656 13.1016 33.8656 8.45 33.8672 4.6875 34.675 4.6875 35.6703L4.6875 41.0766C4.6875 41.1281 4.73906 41.1766 4.75781 41.2266 4.52969 42.0938 4.86719 43.1094 5.77187 43.5359 14.5859 47.7 23.3984 51.8625 32.2125 56.0266 34.45 57.0844 37.0062 57.075 39.2375 56.0016 49.3031 51.1578 59.3687 46.3156 69.4359 41.4719 70.1922 41.1078 70.4531 40.2438 70.2313 39.5234 70.2672 39.4406 70.3125 39.3594 70.3125 39.2734L70.3125 33.8672Z" fill="#B71C1C" transform="matrix(1.01333 0 0 1 571 339)"/><path d="M32.2125 49.2453C23.3984 45.3047 14.5859 41.3641 5.77187 37.4234 4.33125 36.7797 4.325 34.725 5.76094 34.0703 15.7531 29.5203 25.7437 24.9703 35.7359 20.4203 37.6797 19.5344 39.9078 19.5266 41.8578 20.3984 51.0469 24.5078 60.2375 28.6156 69.4266 32.725 70.6047 33.2516 70.6109 34.9344 69.4359 35.4688 59.3703 40.0531 49.3047 44.6375 39.2375 49.2203 37.0062 50.2375 34.45 50.2469 32.2125 49.2453Z" fill="#E53935" transform="matrix(1.01333 0 0 1 571 339)"/><path d="M70.3125 21.9297C70.3125 20.9344 67.6781 20.1281 64.4234 20.1281 61.5922 20.1281 59.2359 20.7391 58.6688 21.5516 53.0656 18.9047 47.4609 16.2578 41.8578 13.6094 39.9078 12.6875 37.6812 12.6969 35.7359 13.6313 29.7703 16.5016 23.8047 19.3719 17.8391 22.2422 16.4891 22.0453 14.8594 21.9281 13.1016 21.9281 8.45 21.9297 4.6875 22.7359 4.6875 23.7312L4.6875 29.1375C4.6875 29.1891 4.73906 29.2375 4.75781 29.2875 4.52969 30.1547 4.86719 31.1703 5.77187 31.5969 14.5859 35.7609 23.3984 39.9234 32.2125 44.0875 34.45 45.1453 37.0062 45.1359 39.2375 44.0625 49.3031 39.2188 59.3687 34.3766 69.4359 29.5328 70.1922 29.1687 70.4531 28.3047 70.2313 27.5844 70.2672 27.5016 70.3125 27.4203 70.3125 27.3344L70.3125 21.9297Z" fill="#B71C1C" transform="matrix(1.01333 0 0 1 571 339)"/><path d="M32.2125 37.3078C23.3984 33.3672 14.5859 29.4266 5.77187 25.4859 4.33125 24.8422 4.325 22.7875 5.76094 22.1328 15.7531 17.5828 25.7437 13.0328 35.7359 8.48281 37.6797 7.59688 39.9078 7.58906 41.8578 8.46094 51.0469 12.5703 60.2375 16.6781 69.4266 20.7875 70.6047 21.3141 70.6109 22.9969 69.4359 23.5312 59.3703 28.1156 49.3047 32.7 39.2375 37.2828 37.0062 38.3 34.45 38.3078 32.2125 37.3078Z" fill="#E53935" transform="matrix(1.01333 0 0 1 571 339)"/><path d="M29.2937 23.0328C29.2906 24.6609 24.9781 26.2469 21.3359 26.2922 17.5562 26.3391 13.0969 24.7406 13.0828 23.0875 13.0688 21.4297 17.5234 19.7109 21.3813 19.7516 25.0266 19.7891 29.2984 21.4109 29.2937 23.0328Z" fill="#FFFFFF" transform="matrix(1.01333 0 0 1 571 339)"/><path d="M26.6219 28.8609C30.3609 30.4578 34.0984 32.0563 37.8375 33.6531 39.4844 31.2156 41.1312 28.7781 42.7781 26.3406 37.3922 27.1812 32.0078 28.0219 26.6219 28.8609Z" fill="#FFFFFF" transform="matrix(1.01333 0 0 1 571 339)"/><path d="M34.1562 15.2734C32.4359 15.9 30.7141 16.525 28.9937 17.1516 31.3484 17.3578 33.7047 17.5641 36.0594 17.7687 36.8094 19.0125 37.5578 20.2563 38.3078 21.4984 38.7687 20.3703 39.2297 19.2422 39.6906 18.1141 41.7 17.9578 43.7094 17.8016 45.7188 17.6453 44.1609 16.9906 42.6031 16.3344 41.0453 15.6781 41.4422 14.7281 41.8391 13.7781 42.2359 12.8266 40.7203 13.2797 39.2062 13.7328 37.6906 14.1859 36.0187 13.5266 34.3469 12.8687 32.675 12.2094 33.1688 13.2313 33.6625 14.2531 34.1562 15.2734Z" fill="#FFFFFF" transform="matrix(1.01333 0 0 1 571 339)"/><path d="M42.6047 22.8422C46.1531 21.4266 49.7031 20.0094 53.2516 18.5938 56.3172 19.8969 59.3828 21.2 62.4484 22.5031 59.0078 23.8719 55.5687 25.2406 52.1281 26.6109 48.9547 25.3531 45.7797 24.0984 42.6047 22.8422Z" fill="#B71C1C" transform="matrix(1.01333 0 0 1 571 339)"/><path d="M53.2531 18.6922C53.2453 21.1859 53.2375 23.6781 53.2297 26.1719 56.3031 24.9484 59.3766 23.7266 62.45 22.5031 59.3844 21.2328 56.3187 19.9625 53.2531 18.6922Z" fill="#A01C1C" transform="matrix(1.01333 0 0 1 571 339)"/></g></svg>