<svg width="75" height="76" xmlns="http://www.w3.org/2000/svg" xmlns:xlink="http://www.w3.org/1999/xlink" overflow="hidden"><defs><clipPath id="clip0"><rect x="367" y="243" width="75" height="76"/></clipPath></defs><g clip-path="url(#clip0)" transform="translate(-367 -243)"><path d="M74.9859 36.6738C74.782 24.1348 67.7906 11.9262 56.9742 5.49727 48.4523 0.189844 37.6875-1.23867 27.9914 1.21055 13.398 4.88438 1.76367 18.1008 0.284766 33.1641-1.55273 47.3906 5.64258 62.1867 17.9391 69.4828 29.9812 77.0344 46.3605 76.7285 58.1344 68.7797 68.748 61.8914 75.3305 49.3266 74.9742 36.6844ZM39.5742 69.4336C22.5316 71.1176 6.05039 56.6777 5.58984 39.5836 4.30078 25.7051 13.4473 11.9789 26.5102 7.38633 44.8289 0.0386719 67.3313 13.6113 69.2191 33.2578 72.1793 50.9109 57.484 68.8828 39.5742 69.4336ZM28.3594 35.6016 53.0039 15.4453 39.6867 35.652C35.9109 35.652 32.1352 35.652 28.3594 35.6004ZM35.2887 39.3281 46.616 39.3797 21.9715 59.5863 35.2887 39.3281Z" fill="#010101" transform="matrix(1 0 0 1.01333 367 243)"/></g></svg>