<svg width="69" height="76" xmlns="http://www.w3.org/2000/svg" xmlns:xlink="http://www.w3.org/1999/xlink" overflow="hidden"><defs><clipPath id="clip0"><rect x="370" y="336" width="69" height="76"/></clipPath><linearGradient x1="40.8175" y1="73.2618" x2="46.1091" y2="70.1351" gradientUnits="userSpaceOnUse" spreadMethod="pad" id="fill1"><stop offset="0" stop-color="#909CA9"/><stop offset="1" stop-color="#A1A1A1"/></linearGradient><linearGradient x1="40.9387" y1="14.3143" x2="45.1965" y2="14.3143" gradientUnits="userSpaceOnUse" spreadMethod="pad" id="fill2"><stop offset="0" stop-color="#939FAB"/><stop offset="1" stop-color="#DCDEE1"/></linearGradient><radialGradient cx="-14217.4" cy="7277.7" r="898.12" gradientUnits="userSpaceOnUse" spreadMethod="pad" id="fill3" gradientTransform="matrix(-0.00604436 -0.00090793 -0.00183626 0.0120887 -10.1482 -67.0445)"><stop offset="0" stop-color="#EE352C"/><stop offset="1" stop-color="#A91D22"/></radialGradient></defs><g clip-path="url(#clip0)" transform="translate(-370 -336)"><path d="M71.9596 41.5299 57.3256 46.3084 44.5943 51.9275 41.0326 52.8675C40.1254 53.7306 39.1743 54.6043 38.1456 55.4893 37.0174 56.4625 35.9666 57.3475 35.159 57.9892 34.2631 58.6971 32.9357 60.0244 32.261 60.865 31.2544 62.1259 30.458 63.4643 30.1151 64.4931 29.5067 66.3513 29.8055 68.2319 30.9779 69.9682 32.4823 72.1804 35.4799 74.437 38.9751 75.9743 40.7561 76.7598 43.7536 77.7667 46.0101 78.3304 49.7597 79.2816 57.0159 80.3105 61.0088 80.4655 61.8162 80.4987 62.9007 80.4987 62.9445 80.4655 63.0333 80.4099 63.6525 79.2266 64.3717 77.7555 66.8272 72.7446 68.5972 68.0437 69.5592 64.0284 70.1345 61.5954 70.588 58.3544 70.8864 54.5161 70.9639 53.4434 70.997 49.8483 70.9307 48.6314 70.8313 46.6405 70.6543 45.0256 70.3778 43.4438 70.3334 43.2115 70.3222 43.0013 70.3447 42.9903 70.3885 42.9571 70.5211 42.9129 72.3243 42.3929L71.9596 41.5302 71.9596 41.53 71.9596 41.53ZM68.6191 43.4878C68.7522 43.4878 69.1057 46.8836 69.1945 49.0296 69.2164 49.483 69.2052 49.7817 69.1832 49.7817 69.095 49.7817 67.3138 48.731 66.0422 47.9346 64.9358 47.2377 62.8344 45.8439 62.5023 45.5785 62.3916 45.5011 62.4028 45.4901 63.3097 45.1803 64.8471 44.6603 68.4977 43.4878 68.6191 43.4878ZM61.1639 45.9435C61.2633 45.9435 61.5179 46.0871 62.1264 46.4633 64.4049 47.8902 67.502 49.6158 68.8292 50.1911 69.2383 50.368 69.2827 50.3016 68.3426 50.9432 66.3294 52.3146 63.8183 53.6643 60.7436 55.0246 60.2014 55.2679 59.7479 55.4561 59.7372 55.4561 59.7147 55.4561 59.7811 55.1797 59.8693 54.8476 60.6109 52.0932 61.0312 49.306 61.0532 47.0716 61.0644 45.9654 61.0644 45.9654 61.1639 45.9324 61.1419 45.9435 61.1526 45.9435 61.1639 45.9435ZM59.6265 46.5297C59.6928 46.5959 59.6484 49.0738 59.5602 49.7484 59.3608 51.3633 59.0511 52.8675 58.5426 54.5605 58.4207 54.969 58.31 55.3123 58.2881 55.3342 58.2437 55.3898 56.7283 53.9076 56.2304 53.3322 55.3679 52.3365 54.6931 51.3414 54.1952 50.3679 53.9412 49.8701 53.5429 48.8968 53.576 48.8636 53.753 48.7419 59.5821 46.4855 59.6265 46.5297ZM52.3921 49.3724C52.4034 49.3724 52.4146 49.3724 52.4258 49.3834 52.4477 49.4055 52.5253 49.5826 52.5916 49.7816 52.9456 50.7439 53.7418 52.1595 54.4278 53.067 55.1797 54.0626 56.1641 55.1241 56.9828 55.8208 57.248 56.0422 57.4913 56.2524 57.5245 56.2855 57.5913 56.3518 57.6132 56.3406 55.8101 57.0267 53.7199 57.8229 51.4409 58.6196 48.8306 59.4602 48.2069 59.6612 47.5839 59.8637 46.9615 60.0687 46.8618 60.1019 46.895 60.0463 47.1826 59.5928 48.4767 57.5689 50.4455 53.5979 51.5515 50.7882 51.7398 50.3014 51.928 49.8148 51.9611 49.7042 52.0055 49.5492 52.0606 49.494 52.2044 49.4165 52.2815 49.3946 52.3595 49.3724 52.3921 49.3724ZM50.1803 50.2904C50.2134 50.3127 49.6493 51.4959 49.0962 52.5798 48.0232 54.6706 46.8508 56.7283 45.2801 59.2281 45.0146 59.6591 44.7603 60.0575 44.7271 60.1019 44.6718 60.1794 44.6496 60.157 44.4726 59.8142 44.0966 59.0731 43.7867 58.1218 43.6209 57.248 43.4549 56.385 43.4882 54.8808 43.6763 53.9519 43.8199 53.2659 43.809 53.2771 44.1408 53.1108 45.5566 52.3921 50.136 50.2462 50.1803 50.2904ZM69.2608 51.0649 69.2608 51.5291C69.2608 53.9958 68.9955 57.3806 68.6079 59.8474 68.5416 60.2789 68.486 60.6324 68.4752 60.6441 68.4752 60.6441 68.1544 60.5553 67.7785 60.4447 66.1192 59.9249 64.3166 59.1613 62.6905 58.2656 61.6173 57.6796 60.0575 56.717 60.1019 56.6727 60.1131 56.662 60.5778 56.4181 61.1195 56.131 63.2878 55.0027 65.3669 53.7857 67.17 52.5804 67.8448 52.1269 68.8624 51.397 69.0838 51.1975L69.2608 51.0649ZM41.8289 54.3386C41.8732 54.3386 41.8621 54.4273 41.7957 54.8252 41.7515 55.1129 41.6962 55.6439 41.6742 56.0091 41.5855 57.624 41.8512 58.8185 42.6476 60.4554 42.8688 60.9093 43.0459 61.2853 43.0346 61.296 42.9572 61.3628 35.6348 63.5087 33.3339 64.1391 32.6482 64.3268 32.051 64.4931 32.0065 64.5038 31.9292 64.5263 31.9181 64.515 31.9513 64.3268 32.2056 62.7012 33.4446 60.5773 35.17 58.7854 36.3205 57.5908 37.2386 56.894 38.8093 55.9978 39.9375 55.3562 41.6741 54.3942 41.8068 54.3498 41.8069 54.3386 41.8179 54.3386 41.8289 54.3386ZM59.0843 57.425C59.0955 57.4138 59.3608 57.5576 59.6816 57.7459 62.0488 59.1174 65.3449 60.3896 68.1544 61.042L68.4089 61.097 68.0549 61.296C66.5839 62.1146 61.7499 64.1279 56.8058 65.9754 56.0866 66.2406 55.3791 66.5059 55.246 66.5614 55.1134 66.6165 54.9915 66.6497 54.9915 66.639 54.9915 66.6278 55.1909 66.2406 55.4449 65.7647 56.8277 63.1766 58.2218 60.0244 58.9292 57.8341 59.018 57.624 59.0731 57.4362 59.0843 57.425ZM57.3256 57.9999C57.3368 58.0111 57.2485 58.2432 57.1379 58.5089 56.1753 60.8425 54.9144 63.3868 53.2996 66.2406 52.8905 66.971 52.5472 67.5571 52.536 67.5571 52.5253 67.5571 52.1932 67.3577 51.7948 67.1144 49.4499 65.6765 47.3705 63.907 46.0101 62.1922L45.8109 61.9489 46.8174 61.6724C50.4234 60.688 53.4873 59.626 56.5293 58.3212 56.9609 58.1442 57.3149 57.9999 57.3256 57.9999ZM68.2544 61.8162C68.2544 61.8162 68.2651 61.8275 68.2544 61.8162 68.2651 62.0708 67.701 64.3493 67.2363 65.9973 66.8491 67.3796 66.5171 68.464 65.9091 70.3773 65.6438 71.2184 65.4118 71.9152 65.4005 71.9152 65.3893 71.9152 65.323 71.904 65.2567 71.882 61.9713 71.2842 59.0292 70.4548 56.2641 69.349 55.4893 69.0389 54.3835 68.541 54.3172 68.486 54.2952 68.4635 54.9588 68.1544 55.7994 67.7892 60.8323 65.5877 66.0529 63.0879 67.8448 62.0152 68.0549 61.8826 68.2207 61.8162 68.2544 61.8162ZM43.0236 62.6788C43.0458 62.7012 41.641 64.7252 39.672 67.4796 38.9862 68.4421 38.1899 69.5699 37.8913 69.9902 37.5926 70.411 37.1391 71.0746 36.8847 71.4724L36.4199 72.1916 35.9221 71.7713C35.3359 71.2847 34.3184 70.2447 33.8649 69.6698 32.9135 68.4865 32.2721 67.2363 32.0177 66.0973 31.896 65.5663 31.896 65.3006 32.0065 65.2674 32.1723 65.223 35.1257 64.5263 37.8912 63.8846 39.4287 63.5306 41.2094 63.1103 41.851 62.9557 42.4926 62.8007 43.0126 62.6788 43.0236 62.6788ZM44.4394 63.221 44.7932 63.6194C46.3862 65.4 48.0122 66.7165 49.9811 67.8667 50.3351 68.0662 50.6005 68.2427 50.5783 68.2539 50.501 68.3095 43.7425 70.7094 40.6122 71.7933 38.8536 72.413 37.4045 72.9103 37.3935 72.9103 37.3825 72.9103 37.2829 72.844 37.1721 72.7665L36.9731 72.6232 37.2939 72.1585C38.3336 70.6543 39.639 69.0062 42.4817 65.577L44.4394 63.221ZM53.2664 69.5367C53.2771 69.526 53.7637 69.703 54.361 69.9244 55.7994 70.4661 56.9384 70.8088 58.4651 71.196 60.3452 71.6719 63.0664 72.1366 64.6706 72.2692 64.9139 72.2911 65.0465 72.3135 65.0022 72.3467 64.9246 72.3906 63.299 72.9328 62.1044 73.3087 60.2014 73.906 54.3947 75.6203 49.6603 76.9812 48.7865 77.2357 48.0343 77.4459 47.9901 77.4566 47.8796 77.479 47.5144 77.3791 47.5144 77.3352 47.5144 77.3128 47.7799 76.97 48.1007 76.5941 49.6934 74.6915 51.2751 72.5676 52.5916 70.5548 52.9563 70.0014 53.2664 69.5479 53.2664 69.5367ZM51.3195 69.5923C51.3307 69.6035 50.5452 70.8644 49.1737 73.0322 48.5874 73.9504 47.9347 74.9899 47.7024 75.3551 47.4812 75.7091 47.1494 76.262 46.9614 76.5716L46.6406 77.1358 46.4747 77.0919C46.0764 76.9812 43.278 75.9968 42.5368 75.6979 41.6187 75.3327 40.6674 74.8904 39.9595 74.5145 39.0747 74.0386 37.9687 73.3306 38.057 73.3087 38.0791 73.298 39.5946 72.8884 41.4196 72.3906 46.2644 71.0741 48.9522 70.311 50.7111 69.7581 51.0318 69.6586 51.3082 69.5811 51.3195 69.5923ZM65.0904 72.8221 65.1016 72.8221C65.146 72.9328 63.3541 77.9101 62.7012 79.4806 62.5574 79.8346 62.5023 79.9233 62.4248 79.9121 62.2371 79.9014 59.6377 79.5362 58.0555 79.3041 55.3016 78.8838 50.6779 78.0758 49.5165 77.8106L49.2511 77.7555 50.899 77.3791C54.4385 76.5829 56.1422 76.1513 57.8678 75.6203 60.0468 74.9567 62.2039 74.1274 64.3824 73.1098 64.7257 72.9547 65.0134 72.8333 65.0904 72.8221Z" fill="url(#fill1)" transform="matrix(1 0 0 1.00666 341.206 329.827)"/><path d="M56.8721 7.41717C56.6288 7.38417 52.7023 8.79998 50.1691 9.82854 46.7511 11.2224 44.0966 12.5498 42.4595 13.6999 41.8512 14.1315 41.0878 14.8946 40.9664 15.1932 40.9221 15.3039 40.8999 15.4366 40.8999 15.5693L42.3822 16.9741 45.9106 18.1023 54.3059 19.6067 63.907 21.2548 64.0065 20.4253C63.9733 20.4253 63.9514 20.4142 63.9183 20.4142L62.6574 20.2151 62.4028 19.7616C61.0975 17.4608 59.6597 14.607 58.8191 12.6824 58.1667 11.1891 57.5469 9.46369 57.2042 8.22477 57.0159 7.47262 56.994 7.4284 56.8726 7.41738L56.8726 7.41712 56.8721 7.41712ZM56.6951 7.98147 56.7063 7.98147C56.717 7.99238 56.7614 8.3023 56.8058 8.66711 56.9935 10.2159 57.3368 11.7089 57.879 13.3239 58.2881 14.5407 58.2881 14.4744 57.8127 14.3305 56.6844 14.0209 51.6296 13.147 47.9681 12.6382 47.3818 12.5607 46.884 12.4834 46.884 12.4724 46.8398 12.4281 49.5276 11.0232 50.7111 10.4703 52.2264 9.7733 56.3855 8.03671 56.6951 7.98147ZM46.0321 12.9368 46.4637 13.0805C48.8085 13.877 54.7038 15.0053 57.956 15.2707 58.3212 15.3039 58.6308 15.3372 58.6421 15.3372 58.6528 15.3482 58.3432 15.5141 57.9448 15.7021 56.3743 16.4874 54.6487 17.4498 53.4541 18.1909 53.1006 18.4121 52.7793 18.5891 52.7354 18.5891 52.691 18.5891 52.459 18.5449 52.2157 18.5117L51.7729 18.4452 50.6671 17.3611C48.7203 15.4698 47.1938 14.0098 46.6075 13.4566L46.0321 12.9368ZM45.5899 13.2796 47.1495 15.2265C48.0011 16.2994 48.8639 17.3502 49.0521 17.5824 49.2399 17.8148 49.3949 18.0029 49.3839 18.0139 49.3396 18.0471 47.1275 17.6156 45.9549 17.3503 44.7492 17.0737 44.2515 16.9409 43.5104 16.7088L42.902 16.5096 42.902 16.3546C42.913 15.6135 43.8533 14.5074 45.4461 13.3793L45.5899 13.2796ZM58.841 15.9344C58.8854 15.9344 58.9405 16.0339 59.0731 16.3325 59.4495 17.1621 60.6222 19.3965 60.9093 19.8279 60.9981 19.9718 61.1526 19.9828 59.5933 19.7284 55.8438 19.1199 54.638 18.921 54.638 18.8989 54.638 18.8878 54.7487 18.8104 54.8925 18.7329 56.0539 18.0915 57.2261 17.2729 58.2661 16.399 58.5207 16.1888 58.7527 15.9897 58.7966 15.9565 58.8078 15.9344 58.8303 15.9234 58.841 15.9344Z" fill="url(#fill2)" transform="matrix(1 0 0 1.00666 341.206 329.827)"/><path d="M41.0435 15.0384C41.0435 15.0384 40.8003 15.4257 41.0326 16.0009 41.1765 16.3547 41.5967 16.786 42.0723 17.2286 42.0723 17.2286 46.9945 22.0291 47.5918 22.715 50.3128 25.8563 51.4965 28.9534 51.6071 33.2231 51.6734 35.9663 51.1532 38.3776 49.8593 41.1761 47.5586 46.1979 42.7026 51.7398 35.2143 57.8897L36.3095 57.5245C37.0174 56.9935 37.9797 56.4299 40.2361 55.1909 45.4459 52.3365 51.3082 49.7153 58.4982 47.0164 68.8512 43.1227 85.8743 38.5654 95.5642 37.0834L96.5706 36.9285 96.4155 36.6851C95.531 35.3135 94.9225 34.4618 94.1921 33.5548 92.0687 30.9223 89.4918 28.7875 86.339 27.0177 82.0029 24.5954 76.3946 22.704 69.2939 21.2992 67.9555 21.0336 65.0129 20.5248 62.6237 20.1598 57.5576 19.3747 54.2835 18.8326 50.6778 18.2131 49.3838 17.9918 47.4479 17.6601 46.1648 17.3836 45.5012 17.2396 44.2292 16.9411 43.2337 16.5982 42.4374 16.2883 41.2869 15.9786 41.0435 15.0384ZM43.8975 17.8038C43.9084 17.7929 44.0853 17.859 44.3178 17.9365 44.7381 18.0801 45.28 18.2461 45.9218 18.4232 46.4072 18.5568 46.8939 18.6858 47.3818 18.8103 48.0454 18.9761 48.5984 19.131 48.6094 19.131 48.687 19.2085 49.8042 22.781 50.1803 24.1527 50.3239 24.6727 50.4347 25.115 50.4237 25.115 50.4123 25.1262 50.2908 24.9381 50.1471 24.6837 48.8528 22.4051 46.8065 20.0933 44.4394 18.235 44.1298 18.0139 43.8975 17.8148 43.8975 17.8038ZM49.3396 19.3081C49.3949 19.3081 49.6383 19.3413 49.9367 19.4076 51.8173 19.8279 55.1909 20.4695 57.348 20.8345 57.7127 20.8898 58.0004 20.9563 58.0004 20.9783 58.0004 21.0005 57.8678 21.0778 57.7015 21.1664 57.3368 21.3544 55.8657 22.2281 55.3791 22.56 54.1509 23.3785 53.045 24.2634 52.2488 25.0598 51.928 25.3806 51.651 25.6461 51.651 25.6461 51.651 25.6461 51.5852 25.4581 51.5296 25.2257 51.1317 23.6881 50.3018 21.4095 49.5497 19.8057 49.428 19.5514 49.3283 19.3191 49.3283 19.297 49.3283 19.3191 49.3283 19.3081 49.3396 19.3081ZM58.9185 21.1332C58.9848 21.1552 59.0955 21.5313 59.3169 22.3609 59.726 23.9649 59.9142 25.7567 59.8479 27.427 59.8254 27.8916 59.8035 28.3229 59.7811 28.3783L59.7479 28.4888 59.173 28.3008C57.9892 27.9248 56.0647 27.3605 54.4166 26.896 53.4766 26.6416 52.7135 26.4093 52.7135 26.3872 52.7135 26.3208 54.0851 24.9492 54.6711 24.4294 55.7882 23.4448 58.8191 21.0999 58.9185 21.1332ZM59.6816 21.2437C59.7147 21.2107 64.261 21.9958 66.3294 22.3941 67.8672 22.6927 70.1014 23.1573 70.234 23.2127 70.3003 23.2347 70.0682 23.3675 69.3271 23.6993 66.4069 25.0157 64.2386 26.199 62.082 27.6371 61.5179 28.0132 61.0425 28.3229 61.0312 28.3229 61.02 28.3229 61.0093 28.0022 61.0093 27.615 61.0093 25.5134 60.589 23.3896 59.8142 21.5978 59.7372 21.4208 59.6704 21.2549 59.6816 21.2437ZM71.4398 23.5666C71.4729 23.5998 71.3291 24.4958 71.1965 25.0267 70.7981 26.6748 69.7254 29.1195 68.4089 31.4201 68.1768 31.8294 67.9667 32.1612 67.9443 32.1722 67.9223 32.1833 67.6239 32.0173 67.2807 31.8182 65.9978 31.066 64.5375 30.3582 62.9445 29.6944 62.5023 29.5064 62.1151 29.3515 62.1039 29.3295 62.0264 29.2631 65.5882 26.9071 67.4689 25.7788 68.9619 24.8719 71.3954 23.5223 71.4398 23.5666ZM72.2804 23.6993C72.3799 23.6993 74.3931 24.2524 75.4439 24.5622 78.0432 25.3365 81.0297 26.4315 82.9766 27.3163L83.7836 27.6815 83.2199 27.8141C78.4635 28.9091 74.3931 30.1703 70.4661 31.763 70.1452 31.8957 69.858 32.0064 69.8361 32.0064 69.8137 32.0064 69.9244 31.752 70.0682 31.4422 71.2516 28.9313 72.0152 26.3098 72.2029 24.0753 72.2141 23.8651 72.2472 23.6993 72.2804 23.6993ZM52.2376 28.3008C52.2707 28.2676 53.8081 28.6327 54.638 28.8648 55.8989 29.2189 58.5758 30.1147 58.5758 30.1812 58.5758 30.1922 58.2768 30.4466 57.9229 30.7564 56.4743 31.9621 55.0802 33.234 53.4097 34.8489 52.9119 35.3247 52.4921 35.7118 52.4702 35.7118 52.4477 35.7118 52.437 35.6453 52.4477 35.5569 52.7023 33.6985 52.6472 31.3094 52.2927 28.887 52.2595 28.5772 52.2264 28.3119 52.2376 28.3008ZM84.5471 28.3341C84.5691 28.3561 83.8392 29.5064 83.3745 30.159 82.7114 31.1102 81.7376 32.3714 79.5362 35.1367 78.3753 36.5966 77.0695 38.2449 76.6385 38.7979 76.1957 39.3509 75.831 39.8154 75.8198 39.8154 75.8086 39.8154 75.6652 39.6164 75.5102 39.3731 74.2712 37.5147 72.7889 35.8887 71.0302 34.4287 70.6987 34.1521 70.3334 33.8534 70.212 33.7649 70.0901 33.6765 69.9907 33.588 69.9907 33.577 69.9907 33.5439 71.8708 32.7362 73.298 32.1612 75.7979 31.1435 79.2041 29.9268 81.7596 29.1414 83.098 28.7211 84.5252 28.3119 84.5471 28.3341ZM85.399 28.5552C85.4428 28.5442 85.7086 28.6769 86.0294 28.8648 88.7175 30.4023 91.35 32.3823 93.4295 34.4176 94.0156 34.9929 95.4647 36.4972 95.4423 36.5082 95.4423 36.5082 94.9337 36.5524 94.3364 36.5966 89.6795 36.9507 83.7178 37.935 77.9881 39.3176 77.601 39.406 77.2582 39.4835 77.2357 39.4835 77.2138 39.4835 77.6453 39.0522 78.187 38.5323 81.5499 35.2914 83.0873 33.2451 84.9011 29.5948 85.1556 29.053 85.377 28.5884 85.399 28.5552 85.3877 28.5552 85.3877 28.5552 85.399 28.5552ZM60.7655 31.0773C60.9206 31.1103 62.3585 31.7852 63.4424 32.3271 64.438 32.8247 65.9315 33.6213 66.0085 33.6875 66.0198 33.6985 65.4888 33.9751 64.8364 34.2959 62.7568 35.3357 60.9762 36.32 59.1174 37.4483 58.5865 37.7691 58.1442 38.0347 58.133 38.0347 58.0891 38.0347 58.0999 37.9902 58.3988 37.4483 59.3944 35.6344 60.1906 33.4664 60.6441 31.3536 60.6885 31.1877 60.7323 31.0773 60.7655 31.0773ZM59.3276 31.3426C59.3608 31.3759 58.9848 32.7363 58.7527 33.4774 58.2988 34.8822 57.5357 36.6409 56.7946 37.9682 56.6176 38.2778 56.3523 38.7314 56.2085 38.9857L55.932 39.4282 55.3128 38.831C54.5936 38.1341 54.007 37.7028 53.2552 37.3155 52.9563 37.1608 52.7242 37.0279 52.7242 37.0059 52.7242 36.9174 54.6155 35.203 56.0647 33.9641 57.1042 33.0681 59.2944 31.3094 59.3276 31.3426ZM68.1218 34.9597 68.6635 35.3135C69.9019 36.1211 71.3623 37.194 72.4793 38.1341 73.1098 38.6539 74.3268 39.7491 74.5701 40.0146L74.7027 40.1585 73.807 40.4128C68.741 41.8175 64.8252 43.0674 60.257 44.7488 59.7479 44.9368 59.3169 45.0916 59.2832 45.0916 59.2174 45.0916 59.1618 45.1469 60.3013 44.096 63.2215 41.4084 65.8096 38.4438 67.7341 35.5568L68.1218 34.9597ZM65.8096 35.5348C65.8315 35.5569 64.3166 37.6916 63.4092 38.8973 62.3253 40.3353 60.4008 42.7466 59.0731 44.3172 58.5202 44.9699 58.0448 45.5119 58.0228 45.523 57.9892 45.534 57.9785 45.3681 57.9785 45.1137 57.9785 43.7752 57.6357 42.3483 57.0379 41.1317 56.7839 40.6229 56.7395 40.5012 56.7951 40.4459 57.0047 40.2578 60.2238 38.4216 62.259 37.3267 63.6306 36.5967 65.7765 35.5127 65.8096 35.5348ZM51.828 38.9638C51.8617 38.9638 52.1157 39.0964 52.4034 39.2514 53.1113 39.6385 53.7418 40.0698 54.3059 40.5345 54.3279 40.5566 54.0407 40.7889 53.6643 41.0653 52.6135 41.8175 51.0211 43.0232 50.0919 43.7644 49.1182 44.5386 49.0853 44.5607 49.1958 44.3949 49.9259 43.2776 50.2907 42.6471 50.678 41.8398 51.0211 41.1209 51.3638 40.2691 51.6071 39.5279 51.6954 39.2072 51.8061 38.9638 51.828 38.9638ZM55.5561 41.8839C55.6112 41.873 55.6775 41.9724 55.9764 42.4149 56.6069 43.3549 57.0935 44.6161 57.2154 45.6337L57.2373 45.855 55.7219 46.4413C53.0119 47.492 50.5121 48.5318 48.8195 49.3059 48.344 49.5273 47.5144 49.9254 46.9725 50.191 46.4305 50.4674 45.988 50.6776 45.988 50.6666 45.988 50.6555 46.3308 50.4011 46.7511 50.0913 50.0587 47.6912 52.9231 45.0585 55.069 42.426 55.3016 42.1494 55.5117 41.8949 55.5337 41.8839L55.5561 41.8839ZM53.8413 42.3043C53.8856 42.3485 52.6247 43.7753 51.7622 44.6491 49.6272 46.8283 47.5145 48.5318 44.8929 50.191 44.5611 50.4011 44.2625 50.5891 44.2293 50.6113 44.1518 50.6555 44.2513 50.5449 45.4017 49.2949 46.1319 48.5096 46.6848 47.8459 47.3153 47.0275 47.7356 46.4856 47.8131 46.4081 48.4216 45.9765 50.0476 44.804 53.7974 42.2599 53.8413 42.3043Z" fill="url(#fill3)" transform="matrix(1 0 0 1.00666 341.206 329.827)"/><path d="M23.8226 80.6885C23.6185 80.6885 23.4144 80.708 23.2122 80.708 19.0908 80.9276 16.3111 82.7413 14.6859 86.2834 13.2959 89.4868 13.4476 93.6741 14.7015 96.8968 16.1595 100.047 18.5156 101.709 22.4481 102.336 23.2802 102.473 23.8382 102.929 25.4497 104.811L27.4326 107.134 31.0289 107.134 28.6376 104.724C27.3157 103.401 26.2465 102.25 26.2465 102.15 26.2465 102.049 26.7522 101.827 27.3643 101.641 29.3822 101.029 31.0579 99.4705 32.2301 97.0815 33.1788 95.1631 33.3149 94.5697 33.4509 92.1833 33.8067 85.0778 30.0606 80.6357 23.8224 80.6864L23.8226 80.6885ZM26.9756 99.2688C25.226 100.116 22.6855 100.285 21.0272 99.6776 19.3126 99.0474 17.6525 97.267 16.9058 95.251 16.0758 93.0466 16.1943 88.9797 17.143 87.1482 18.669 84.2323 20.687 82.8911 23.6359 82.8911 28.0098 82.8911 30.4981 85.57 30.8227 90.6047 31.0794 94.8072 29.6719 97.9609 26.9775 99.267L26.9756 99.2688ZM89.1009 86.7576C87.5924 86.7576 86.4377 87.3681 85.66 88.5712L85.0496 89.5238 85.0496 87.0471 82.4389 87.0471 82.4389 101.899 85.0479 101.899 85.0479 97.1523C85.0479 92.8109 85.102 92.3035 85.7086 91.1157 86.5447 89.4868 87.983 88.6744 89.3732 89.0632L90.3062 89.3354 90.3062 86.7615 89.1009 86.7615 89.1009 86.7576ZM73.7631 86.6214C73.2517 86.6214 72.7092 86.6895 72.1691 86.8082 68.6756 87.7217 66.7064 91.0655 66.8269 94.506 66.8269 97.3872 67.3866 98.8277 68.7768 100.338 71.6248 102.674 74.2005 102.861 77.6762 101.608 78.2692 101.355 78.9146 101.063 78.9146 101.063L78.9146 98.7264 77.6762 99.3683C74.8633 100.593 72.7444 100.593 71.0471 99.1505 69.9646 98.0478 69.4882 96.7265 69.2686 95.2178L79.7951 95.2178 79.7951 93.2151C79.7951 89.133 77.338 86.5553 73.7609 86.6214L73.7631 86.6214ZM69.5057 93.1336C69.5057 93.1336 69.8946 90.5877 71.337 89.588 72.0312 89.098 72.828 88.861 73.6075 88.861 74.3891 88.861 75.1685 89.1136 75.812 89.6055 77.134 90.6217 77.3556 93.1147 77.3556 93.1147L69.5058 93.1147 69.5058 93.1336 69.5057 93.1336ZM6.56587 90.455C3.73554 88.7404 2.47973 87.5039 2.63328 86.046 3.07254 82.0123 8.057 82.5702 10.8173 84.0963L10.8369 81.3826C10.8369 81.3826 9.31085 80.7217 7.12381 80.6866 3.76853 80.6361 1.59906 81.7363 0.582505 83.9757-0.910601 87.2805 0.411465 89.7728 5.18983 92.5527 7.87242 94.1134 9.05814 95.4688 9.05814 96.9461 9.05814 99.9976 5.37827 101.063 1.58176 99.1487 0.800429 98.7596 0.139396 98.4351 0.104435 98.4351-0.0317339 99.3002 0.0384572 101.37 0.0384572 101.37 0.0384572 101.37 1.2049 101.86 2.9543 102.198 7.29306 103.063 11.2414 101.028 11.6146 97.7233 11.9393 94.6208 10.8174 92.9937 6.56605 90.4532L6.56587 90.455ZM112.207 86.5865C111.698 86.5865 111.157 86.6565 110.593 86.7751 107.104 87.6887 105.139 91.0323 105.272 94.4737 105.272 97.3504 105.831 98.7775 107.22 100.285 110.068 102.624 112.645 102.812 116.138 101.557 116.729 101.305 117.372 101.017 117.372 101.017L117.372 98.6762 116.136 99.3217C113.317 100.543 111.198 100.543 109.507 99.1003 108.418 97.9994 107.945 96.6933 107.726 95.1676L118.235 95.1676 118.235 93.1649C118.235 89.1023 115.778 86.5225 112.201 86.5907L112.207 86.5865ZM107.95 93.0986C107.95 93.0986 108.343 90.5563 109.783 89.5373 110.475 89.0456 111.272 88.8083 112.051 88.8083 112.829 88.8083 113.613 89.0611 114.256 89.5548 115.578 90.5715 115.8 93.0816 115.8 93.0816L107.952 93.0816 107.95 93.0986ZM60.0969 90.4882C57.2666 88.7774 56.0145 87.537 56.1662 86.079 56.6054 82.0432 61.59 82.6032 64.3503 84.1293L64.3699 81.4156C64.3699 81.4156 62.8438 80.7546 60.6567 80.7234 57.3014 80.6729 55.132 81.7732 54.1135 84.0126 52.6225 87.3172 53.9619 89.8096 58.7245 92.5894 61.4035 94.1483 62.5892 95.4858 62.5892 96.9632 62.5892 100.016 58.9112 101.098 55.1146 99.1657 54.337 98.7766 53.6762 98.4566 53.6373 98.4566 53.5011 99.3208 53.5713 101.392 53.5713 101.392 53.5713 101.392 54.7239 101.864 56.4677 102.22 60.8105 103.087 64.7606 101.054 65.132 97.7484 65.4547 94.6611 64.335 93.0341 60.097 90.4918L60.097 90.4882ZM127.547 86.7226C126.038 86.7226 124.87 87.3348 124.106 88.5383L123.495 89.4869 123.495 87.0142 120.885 87.0142 120.885 101.862 123.493 101.862 123.493 97.1155C123.493 92.7759 123.546 92.2667 124.155 91.0807 124.99 89.454 126.429 88.6395 127.819 89.0301L128.752 89.3022 128.752 86.7227 127.547 86.7227ZM39.3354 90.4021 39.3354 80.943 36.7034 80.943 36.7034 101.895 47.7724 101.895 47.7724 99.4203 39.3355 99.4203 39.3355 90.4021ZM100.205 93.3514 98.0353 98.9963 95.9493 93.32 93.8301 87.0297 91.1363 87.0297C92.8817 91.979 94.7812 97.0142 96.696 101.895 97.5261 101.915 98.358 101.895 99.1881 101.895L102.118 94.5392 105.102 87.0316 102.526 87.0316C102.526 87.0316 101.389 90.014 100.203 93.3532L100.205 93.3514ZM45.4005 75.2336C45.8244 75.2336 46.1781 75.0977 46.4697 74.8061 46.7573 74.5182 46.909 74.18 46.909 73.7563 46.909 73.3324 46.7573 72.9786 46.4697 72.7065 46.1781 72.4344 45.8417 72.2981 45.4199 72.2981 44.9924 72.2981 44.6385 72.4344 44.3507 72.722 44.0592 73.0098 43.927 73.3636 43.927 73.7719 43.927 74.1996 44.0631 74.5532 44.3507 74.8217 44.623 75.0937 44.9768 75.2298 45.4005 75.2298L45.4005 75.2336ZM44.4675 72.8232C44.7201 72.5705 45.0273 72.4538 45.42 72.4538 45.7894 72.4538 46.0966 72.5705 46.3533 72.8232 46.606 73.0759 46.742 73.383 46.742 73.7563 46.742 74.1295 46.606 74.4523 46.3533 74.7049 46.0967 74.9574 45.7894 75.0781 45.42 75.0781 45.0448 75.0781 44.7396 74.9614 44.487 74.7049 44.2343 74.4523 44.0982 74.1295 44.0982 73.7563 44.0982 73.383 44.2148 73.076 44.4675 72.8232ZM45.0953 73.8924 45.2663 73.8924C45.387 73.8924 45.5055 74.009 45.6065 74.2307L45.8108 74.6893 46.1315 74.6893 45.8789 74.1798C45.7759 73.9759 45.6748 73.8573 45.5561 73.824 45.7058 73.7891 45.8244 73.7386 45.91 73.6374 45.9953 73.5501 46.0265 73.4314 46.0265 73.2972 46.0265 73.1418 45.9779 73.0252 45.875 72.9396 45.7583 72.8424 45.5717 72.79 45.3305 72.79L44.7903 72.79 44.7903 74.6893 45.0624 74.6893 45.0624 73.8923 45.0953 73.8924ZM45.0953 73.0098 45.3326 73.0098C45.5036 73.0098 45.6242 73.0448 45.6903 73.0952 45.7544 73.1458 45.7719 73.212 45.7719 73.3324 45.7719 73.5521 45.6357 73.6552 45.3831 73.6552L45.0916 73.6552 45.0916 73.0098 45.0953 73.0098ZM1.61646 73.7232C1.61646 73.0622 1.59709 72.5705 1.58149 72.2808L1.59709 72.2808C1.66504 72.6227 1.74868 72.8776 1.81672 73.0466L4.34378 78.692 4.76761 78.692 7.29467 72.9962C7.36289 72.8408 7.43093 72.6074 7.51448 72.2827L7.53384 72.2827C7.48337 72.8466 7.46589 73.3364 7.46589 73.727L7.46589 78.7095 8.33077 78.7095 8.33077 71.303 7.24608 71.303 4.92314 76.4545C4.83753 76.6585 4.71894 76.9639 4.56735 77.3682L4.53221 77.3682C4.48174 77.1679 4.36314 76.8627 4.19407 76.4894L1.9234 71.2853 0.770757 71.2853 0.770757 78.6918 1.60274 78.6918 1.60274 73.7269 1.61646 73.7232ZM10.2263 73.737 10.9729 73.737 10.9729 78.3499 10.2263 78.3499 10.2263 73.737ZM10.5996 72.0456C10.7552 72.0456 10.8873 71.993 10.9884 71.8902 11.0914 71.7889 11.1596 71.6568 11.1596 71.5014 11.1596 71.3497 11.1089 71.2135 10.9904 71.1126 10.8854 71.0095 10.7512 70.9569 10.5977 70.9569 10.4462 70.9569 10.3101 71.0095 10.2088 71.1126 10.1061 71.2135 10.0379 71.3497 10.0379 71.5014 10.0379 71.6705 10.0904 71.7889 10.2088 71.8902 10.3257 71.993 10.4461 72.0456 10.5977 72.0456L10.5996 72.0456ZM16.2955 78.4511 16.2955 77.6384C15.8872 77.9436 15.4479 78.0954 14.993 78.0954 14.4489 78.0954 14.0074 77.9088 13.6847 77.5512 13.364 77.1974 13.193 76.7054 13.193 76.0931 13.193 75.4516 13.364 74.9421 13.7177 74.5533 14.0579 74.1801 14.4993 73.9935 15.0398 73.9935 15.481 73.9935 15.9046 74.1297 16.2956 74.402L16.2956 73.5369C15.9399 73.3503 15.5336 73.2647 15.0748 73.2647 14.2271 73.2647 13.5663 73.5369 13.0726 74.062 12.5826 74.5867 12.3299 75.3002 12.3299 76.1614 12.3299 76.9272 12.5495 77.5708 13.0065 78.0627 13.4827 78.568 14.0914 78.8246 14.8377 78.8246 15.4149 78.8087 15.8872 78.6881 16.2955 78.4511ZM18.4318 75.9919C18.4318 75.3834 18.5679 74.8917 18.8206 74.5532 19.0579 74.2481 19.3455 74.0946 19.6857 74.0946 19.9734 74.0946 20.1775 74.147 20.3271 74.2656L20.3271 73.383C20.2105 73.3325 20.0414 73.315 19.8218 73.315 19.5165 73.315 19.2445 73.4178 19.0054 73.6067 18.7527 73.8066 18.5505 74.1121 18.4319 74.5009L18.4126 74.5009 18.4126 73.418 17.5669 73.418 17.5669 78.7056 18.4144 78.7056 18.4144 75.9919 18.4318 75.9919ZM23.2976 78.8106C24.0947 78.8106 24.7362 78.5539 25.2124 78.0447 25.6866 77.5391 25.9238 76.8588 25.9238 76.0111 25.9238 75.1463 25.7062 74.4853 25.263 73.9932 24.8237 73.5017 24.2131 73.2642 23.416 73.2642 22.6189 73.2642 21.9774 73.5015 21.5012 73.9602 20.992 74.4659 20.7237 75.1793 20.7237 76.0949 20.7237 76.8919 20.9414 77.553 21.4003 78.0447 21.8745 78.5539 22.5025 78.8086 23.2976 78.8086L23.2976 78.8106ZM22.0923 74.5027C22.4151 74.1625 22.839 73.9933 23.3637 73.9933 23.9082 73.9933 24.3163 74.1625 24.6196 74.5027 24.9247 74.8585 25.0765 75.366 25.0765 76.0443 25.0765 76.6896 24.9403 77.1971 24.6526 77.5373 24.365 77.8931 23.9412 78.0815 23.3811 78.0815 22.8369 78.0815 22.4151 77.8929 22.0923 77.5373 21.7717 77.1796 21.618 76.6896 21.618 76.0443 21.585 75.4028 21.7542 74.8781 22.0923 74.5027ZM29.6351 78.3499C29.9577 78.0623 30.1289 77.7085 30.1289 77.265 30.1289 76.8762 29.9926 76.5536 29.74 76.2989 29.5338 76.095 29.2153 75.9101 28.7545 75.7235 28.3461 75.5526 28.0935 75.4008 27.9573 75.2822 27.8213 75.1462 27.7377 74.9772 27.7377 74.738 27.7377 74.5183 27.8233 74.3492 27.9905 74.2131 28.1616 74.0772 28.3793 74.0111 28.6709 74.0111 29.1278 74.0111 29.5184 74.1315 29.876 74.3863L29.876 73.5386C29.5339 73.3678 29.1626 73.2861 28.7388 73.2861 28.1946 73.2861 27.7358 73.4359 27.3974 73.7253 27.0416 74.0132 26.8726 74.3864 26.8726 74.8255 26.8726 75.2143 26.9891 75.5371 27.2106 75.7741 27.3973 75.9764 27.7163 76.1826 28.1593 76.3671 28.5833 76.5538 28.8709 76.7228 29.0244 76.8587 29.176 76.995 29.244 77.164 29.244 77.3644 29.244 77.858 28.9059 78.1129 28.2449 78.1129 27.7355 78.1129 27.2789 77.9456 26.8704 77.6075L26.8704 78.5208C27.2398 78.7427 27.6831 78.8436 28.1729 78.8436 28.8008 78.8107 29.2925 78.6571 29.6308 78.3519L29.6351 78.3499ZM33.6707 73.2644C32.8735 73.2644 32.2321 73.5017 31.7558 73.9604 31.2504 74.4661 30.9783 75.1795 30.9783 76.0951 30.9783 76.8921 31.1981 77.5531 31.6548 78.0449 32.1311 78.5541 32.757 78.8088 33.5541 78.8088 34.3705 78.8088 34.9927 78.5523 35.4689 78.0428 35.9452 77.5374 36.1823 76.857 36.1823 76.0094 36.1823 75.1443 35.9607 74.4835 35.5212 73.9916 35.0627 73.4997 34.4521 73.2625 33.6745 73.2625L33.6707 73.2644ZM35.3152 76.0444C35.3152 76.6897 35.1792 77.1972 34.8915 77.5374 34.6037 77.8932 34.1799 78.0816 33.62 78.0816 33.0755 78.0816 32.6538 77.893 32.331 77.5374 32.0103 77.1797 31.8568 76.6897 31.8568 76.0444 31.8568 75.364 32.026 74.8393 32.3662 74.4853 32.6868 74.147 33.1108 73.9759 33.6376 73.9759 34.1623 73.9759 34.5843 74.1468 34.8893 74.4853 35.1616 74.8584 35.3133 75.3659 35.3133 76.0444L35.3152 76.0444ZM37.6054 78.6901 38.451 78.6901 38.451 74.1122 39.6892 74.1122 39.6892 73.4006 38.4509 73.4006 38.4509 72.5841C38.4509 71.8417 38.7385 71.4684 39.3334 71.4684 39.5337 71.4684 39.7378 71.5189 39.8895 71.6045L39.8895 70.8406C39.7378 70.7726 39.5337 70.7571 39.2788 70.7571 38.8221 70.7571 38.4489 70.8932 38.1436 71.1808 37.7878 71.519 37.5994 71.9584 37.5994 72.5534L37.5994 73.4205 36.7049 73.4205 36.7049 74.1319 37.5994 74.1319 37.5994 78.6926 37.6054 78.6901ZM41.0791 77.2476C41.0791 78.2819 41.5361 78.8087 42.4691 78.8087 42.8074 78.8087 43.062 78.7544 43.2661 78.6338L43.2661 77.9068C43.1107 78.0235 42.9259 78.078 42.7219 78.078 42.4343 78.078 42.2321 78.0097 42.1134 77.8561 41.9928 77.7047 41.9249 77.4479 41.9249 77.0941L41.9249 74.1102 43.266 74.1102 43.266 73.3986 41.9249 73.3986 41.9249 71.8397C41.6332 71.9407 41.3475 72.0263 41.0772 72.1117L41.0772 73.3985 40.1635 73.3985 40.1635 74.1101 41.0772 74.1101 41.0772 77.2457 41.0791 77.2476ZM132.057 86.9946C131.769 86.7226 131.428 86.5864 131.007 86.5864 130.58 86.5864 130.225 86.7226 129.938 87.0141 129.65 87.2999 129.514 87.6555 129.514 88.0639 129.514 88.4878 129.65 88.8416 129.936 89.1136 130.224 89.3857 130.577 89.522 131.005 89.522 131.427 89.522 131.783 89.3857 132.074 89.0981 132.36 88.8065 132.511 88.4702 132.511 88.0484 132.496 87.6208 132.342 87.2668 132.055 86.9948L132.057 86.9946ZM131.921 88.997C131.668 89.2497 131.36 89.3663 130.987 89.3663 130.618 89.3663 130.312 89.2497 130.054 88.997 129.801 88.7404 129.665 88.4197 129.665 88.0444 129.665 87.675 129.783 87.368 130.039 87.1114 130.292 86.8589 130.597 86.742 130.987 86.742 131.357 86.742 131.664 86.8589 131.921 87.1114 132.173 87.368 132.31 87.675 132.31 88.0444 132.31 88.4372 132.193 88.7404 131.921 88.997ZM131.159 88.1319C131.31 88.0969 131.431 88.0289 131.515 87.9454 131.6 87.8578 131.631 87.7391 131.631 87.6034 131.631 87.4517 131.583 87.3311 131.48 87.2476 131.363 87.1503 131.175 87.0978 130.935 87.0978L130.395 87.0978 130.395 88.995 130.667 88.995 130.667 88.198 130.836 88.198C130.953 88.198 131.07 88.3145 131.175 88.5362L131.376 88.993 131.699 88.993 131.446 88.4836C131.359 88.262 131.258 88.1608 131.155 88.1277L131.159 88.1319ZM130.972 87.961 130.681 87.961 130.681 87.3195 130.919 87.3195C131.089 87.3195 131.207 87.3505 131.275 87.4031 131.343 87.4536 131.359 87.5197 131.359 87.6403 131.359 87.8599 131.223 87.9611 130.97 87.9611L130.972 87.961ZM83.6773 73.1809 83.9145 73.1809 83.9145 71.2817 84.5422 71.2817 84.5422 71.0445 83.0495 71.0445 83.0495 71.2817 83.6775 71.2817 83.6775 73.1809 83.6773 73.1809ZM85.1158 71.7541C85.1158 71.5692 85.1158 71.4176 85.1022 71.3323 85.1178 71.4332 85.1528 71.5015 85.1684 71.5519L85.8974 73.1809 86.0141 73.1809 86.7448 71.5362C86.7645 71.4858 86.7801 71.4196 86.813 71.3323 86.7974 71.5015 86.7974 71.6372 86.7974 71.7404L86.7974 73.179 87.0502 73.179 87.0502 71.0445 86.7448 71.0445 86.0841 72.518C86.0685 72.5706 86.0158 72.6735 85.9829 72.7903L85.9634 72.7903C85.9498 72.7221 85.9149 72.6541 85.8662 72.5377L85.2053 71.0446 84.8632 71.0446 84.8632 73.183 85.1022 73.183 85.1022 71.7561 85.1158 71.7541Z" fill="#231F1F" transform="matrix(1 0 0 1.00666 323.327 337.293)"/></g></svg>