<svg width="75" height="76" xmlns="http://www.w3.org/2000/svg" xmlns:xlink="http://www.w3.org/1999/xlink" overflow="hidden"><defs><clipPath id="clip0"><rect x="364" y="431" width="75" height="76"/></clipPath></defs><g clip-path="url(#clip0)" transform="translate(-364 -431)"><path d="M63.75 0C69.9632-2.08167e-15 75 5.0368 75 11.25L75 63.75C75 69.9632 69.9632 75 63.75 75L11.25 75C5.0368 75 1.56462e-06 69.9632 1.56462e-06 63.75L1.56462e-06 11.25C1.56462e-06 5.0368 5.0368 1.56462e-06 11.25 1.56462e-06Z" fill="#3178C6" transform="matrix(1 0 0 1.01333 364 431)"/><path d="M34.1309 41.6016 43.5059 41.6016 43.5059 35.5957 17.2852 35.5957 17.2852 41.6016 26.6602 41.6016 26.6602 68.4082 34.1309 68.4082ZM46.4355 66.9434C47.6221 67.5586 49.0723 68.0127 50.6836 68.3203 52.2949 68.6279 54.0527 68.7744 55.8105 68.7744 57.5684 68.7744 59.1797 68.6133 60.791 68.2764 62.4023 67.9395 63.7207 67.3828 64.8926 66.665 66.0791 65.8887 67.0898 64.9072 67.6758 63.5889 68.2617 62.2705 68.7158 60.8057 68.7158 58.9014 68.7158 57.5684 68.5107 56.4111 68.1152 55.3857 67.7197 54.3604 67.1484 53.4814 66.3574 52.749 65.6104 51.9727 64.7461 51.2842 63.7207 50.6982 62.6953 50.1123 61.5234 49.4971 60.2051 48.9404 59.2383 48.5449 58.4473 48.1641 57.5684 47.7832 56.8066 47.4023 56.1475 47.0215 55.6641 46.6406 55.1221 46.2451 54.7119 45.835 54.4189 45.4102 54.126 44.9707 53.9795 44.4873 53.9795 43.9453 53.9795 43.4473 54.1099 42.9932 54.375 42.583 54.6401 42.1729 55.0049 41.8359 55.4736 41.543 55.9424 41.25 56.5283 41.0303 57.2314 40.8691 57.9199 40.708 58.6816 40.6348 59.5752 40.6348 60.1904 40.6348 60.835 40.6802 61.4795 40.7725 62.1533 40.8647 62.8418 41.0068 63.5303 41.1973 64.2188 41.3877 64.8926 41.6221 65.5811 41.915 66.2256 42.208 66.8262 42.5449 67.3389 42.9258L67.3389 36.041C66.2256 35.6162 64.9951 35.2939 63.6768 35.0889 62.3584 34.8838 60.8936 34.7812 59.1357 34.7812 57.3779 34.7812 55.7666 34.9717 54.1553 35.3379 52.5439 35.7041 51.2256 36.29 50.0537 37.0957 48.8672 37.8867 48.0029 38.8535 47.2705 40.1719 46.582 41.4023 46.2451 42.8086 46.2451 44.5664 46.2451 46.7637 46.875 48.668 48.1494 50.1328 49.4092 51.7441 51.3721 52.916 53.8623 54.0879 54.873 54.498 55.7666 54.9082 56.6455 55.3037 57.5244 55.6992 58.2568 56.1094 58.8428 56.5342 59.4727 56.959 59.9707 57.4277 60.3076 57.9258 60.6738 58.4238 60.8643 59.0098 60.8643 59.6836 60.8643 60.1523 60.75 60.5918 60.5273 61.002 60.3047 61.4121 59.9561 61.7637 59.4873 62.0566 59.0186 62.3496 58.4473 62.584 57.7295 62.7598 57.041 62.9209 56.2646 63.0088 55.2393 63.0088 53.6279 63.0088 52.0166 62.7305 50.5518 62.1738 48.9404 61.6172 47.4756 60.7822 46.4355 59.9121Z" fill="#FFFFFF" transform="matrix(1 0 0 1.01333 364 431)"/></g></svg>