<svg width="76" height="76" xmlns="http://www.w3.org/2000/svg" xmlns:xlink="http://www.w3.org/1999/xlink" overflow="hidden"><defs><clipPath id="clip0"><rect x="777" y="245" width="76" height="76"/></clipPath></defs><g clip-path="url(#clip0)" transform="translate(-777 -245)"><path d="M42.1791 56.729C42.1791 47.2865 34.5251 39.6313 25.0826 39.6313 15.6388 39.6313 7.98487 47.2865 7.98487 56.729 7.98487 66.1714 15.6388 73.8266 25.0826 73.8266 34.5251 73.8266 42.1791 66.1714 42.1791 56.729" fill="#FF6600" transform="matrix(1 0 0 -1 777 359.497)"/><path d="M75.9941 32.791C75.9941 23.3499 68.34 15.6935 58.8976 15.6935 49.4537 15.6935 41.8 23.3499 41.8 32.791 41.8 42.2337 49.4537 49.8901 58.8976 49.8901 68.34 49.8901 75.9941 42.2337 75.9941 32.791" fill="#FFCC00" transform="matrix(1 0 0 -1 777 311.623)"/><path d="M34.2003 32.4116C34.2003 22.9706 26.5462 15.3141 17.1025 15.3141 7.66127 15.3141 0.00603072 22.9706 0.00603072 32.4116 0.00603072 41.8543 7.66127 49.5107 17.1025 49.5107 26.5462 49.5107 34.2003 41.8543 34.2003 32.4116" fill="#0089CC" transform="matrix(1 0 0 -1 777 310.864)"/><path d="M68.3958 56.729C68.3958 47.2865 60.7418 39.6313 51.2967 39.6313 41.8555 39.6313 34.2003 47.2865 34.2003 56.729 34.2003 66.1714 41.8555 73.8266 51.2967 73.8266 60.7418 73.8266 68.3958 66.1714 68.3958 56.729" fill="#009939" transform="matrix(1 0 0 -1 777 359.497)"/><path d="M55.0976 17.2141C55.0976 7.77165 47.4424 0.11641 38 0.11641 28.5575 0.11641 20.9023 7.77165 20.9023 17.2141 20.9023 26.6566 28.5575 34.3119 38 34.3119 47.4424 34.3119 55.0976 26.6566 55.0976 17.2141" fill="#BF0000" transform="matrix(1 0 0 -1 777 280.467)"/><path d="M41.7997 17.2125C41.7997 16.8528 41.8309 16.5006 41.8534 16.1459 49.4374 17.8955 55.0973 24.676 55.0973 32.791 55.0973 33.1508 55.0659 33.5041 55.0433 33.8589 47.4596 32.1082 41.7997 25.3277 41.7997 17.2125" fill="#FC0007" transform="matrix(1 0 0 -1 777 296.044)"/><path d="M44.0554 48.2633C47.0018 43.1119 52.5389 39.6316 58.8982 39.6316 61.4902 39.6316 63.938 40.2257 66.1399 41.2585 63.1946 46.4096 57.6576 49.8898 51.297 49.8898 48.705 49.8898 46.2573 49.2958 44.0554 48.2633" fill="#1CD306" transform="matrix(1 0 0 -1 777 335.561)"/><path d="M34.2003 56.729C34.2003 52.5516 35.7016 48.7291 38.1906 45.76 40.6772 48.7291 42.1788 52.5516 42.1788 56.729 42.1788 60.9063 40.6772 64.7288 38.1906 67.6979 35.7016 64.7288 34.2003 60.9063 34.2003 56.729" fill="#0F7504" transform="matrix(1 0 0 -1 777 359.497)"/><path d="M10.3333 41.032C12.4101 40.1345 14.6961 39.6319 17.1025 39.6319 23.3991 39.6319 28.8848 43.0448 31.8526 48.1119 29.776 49.0093 27.4887 49.5104 25.0836 49.5104 18.7869 49.5104 13.2999 46.0979 10.3333 41.032" fill="#0C5E87" transform="matrix(1 0 0 -1 777 335.182)"/><path d="M20.9756 33.8544C20.9355 33.3783 20.9016 32.8994 20.9016 32.4119 20.9016 24.303 26.5528 17.5288 34.1279 15.7717 34.1667 16.2479 34.2006 16.7267 34.2006 17.213 34.2006 25.3219 28.5506 32.0984 20.9756 33.8544" fill="#6B0001" transform="matrix(1 0 0 -1 777 295.665)"/><path d="M22.5716 33.1027 19.897 33.1027C17.5357 33.1027 15.6157 35.0164 15.6157 37.3715L15.6157 61.5805C15.6157 63.9353 17.5357 65.8504 19.897 65.8504L53.4342 65.8504C55.7956 65.8504 57.7143 63.9353 57.7143 61.5805L57.7143 37.3715C57.7143 35.0164 55.7956 33.1027 53.4342 33.1027L42.0093 33.1027 19.0861 21.8655 22.5716 33.1027 22.5716 33.1027Z" fill="#FFFFFF" transform="matrix(1 0 0 -1 777 333.755)"/></g></svg>